<?xml version="1.0" encoding="UTF-8"?>
<svg xmlns="http://www.w3.org/2000/svg" xmlns:xlink="http://www.w3.org/1999/xlink" id="Layer_1" x="0px" y="0px" viewBox="0 0 997.53 556.81" style="enable-background:new 0 0 997.53 556.81;" xml:space="preserve">
  <style type="text/css">	.st0{fill:#FFFFFF;}</style>
  <g>	<g>		<path class="st0" d="M3199.86,229.5c0,12.91-10.5,23.41-23.4,23.41c-12.9,0-23.4-10.5-23.4-23.41v-12.63h-7.68v12.63   c0,17.14,13.94,31.08,31.08,31.08c17.14,0,31.08-13.94,31.08-31.08v-12.63h-7.68V229.5z"></path>		<path class="st0" d="M3160.46,213.36c-8.31,0-15.08-6.77-15.08-15.08v-6.4h7.46v6.4c0,4.2,3.42,7.62,7.62,7.62   c4.2,0,7.62-3.42,7.62-7.62v-6.4h7.45v6.4C3175.54,206.59,3168.77,213.36,3160.46,213.36z"></path>		<path class="st0" d="M3193.78,184.76c-7.88,0-14.3,6.42-14.3,14.3c0,7.88,6.41,14.29,14.3,14.29c7.88,0,14.3-6.41,14.3-14.29   C3208.08,191.18,3201.66,184.76,3193.78,184.76z M3186.6,199.06c0-3.96,3.22-7.18,7.18-7.18s7.18,3.22,7.18,7.18   c0,0.69-0.1,1.35-0.28,1.98l-4.46-4.46l-4.92,4.92l4.45,4.46c-0.63,0.18-1.29,0.28-1.97,0.28   C3189.82,206.24,3186.6,203.02,3186.6,199.06z"></path>	</g>	<g>		<g>			<path class="st0" d="M3169.01,277.75c0,1.51-0.82,2.23-2.53,2.23s-2.54-0.72-2.54-2.23v-3.33h1.71v2.96    c0,0.55-0.01,1.25,0.83,1.25c0.81,0,0.81-0.7,0.81-1.25v-2.96h1.71V277.75z"></path>			<path class="st0" d="M3169.73,274.41h1.75l1.62,2.91h0.02v-2.91h1.62v5.43h-1.67l-1.71-2.97h-0.02v2.97h-1.62V274.41z"></path>			<path class="st0" d="M3175.47,274.41h1.71v5.43h-1.71V274.41z"></path>			<path class="st0" d="M3180.56,274.28c1.69,0,2.82,1.19,2.82,2.85c0,1.66-1.13,2.85-2.82,2.85c-1.69,0-2.82-1.19-2.82-2.85    C3177.75,275.47,3178.87,274.28,3180.56,274.28z M3180.56,278.62c0.44,0,1.11-0.28,1.11-1.49c0-1.21-0.67-1.49-1.11-1.49    c-0.44,0-1.11,0.28-1.11,1.49C3179.46,278.34,3180.13,278.62,3180.56,278.62z"></path>			<path class="st0" d="M3183.96,274.41h1.75l1.62,2.91h0.02v-2.91h1.62v5.43h-1.67l-1.71-2.97h-0.02v2.97h-1.62V274.41z"></path>		</g>		<g>			<g>				<path class="st0" d="M3171.51,268.95c0,0.13,0.02,0.26,0.06,0.37c0.12,0.33,0.5,0.4,0.82,0.4c0.28,0,0.71-0.09,0.71-0.51     c0-0.28-0.24-0.37-1.2-0.64c-0.88-0.25-1.88-0.49-1.88-1.61c0-1.28,1.1-1.84,2.24-1.84c1.21,0,2.28,0.47,2.32,1.81h-1.62     c0.03-0.21-0.05-0.35-0.2-0.44c-0.15-0.1-0.33-0.14-0.51-0.14c-0.23,0-0.62,0.06-0.62,0.37c0.02,0.39,0.83,0.5,1.61,0.7     c0.79,0.23,1.57,0.58,1.57,1.6c0,1.45-1.32,1.92-2.57,1.92c-0.62,0-2.45-0.23-2.45-2H3171.51z"></path>				<path class="st0" d="M3176.48,266.68h-1.56v-1.43h4.83v1.43h-1.56v4.13h-1.71V266.68z"></path>				<path class="st0" d="M3185.27,268.67c0,1.55-0.82,2.28-2.53,2.28s-2.54-0.73-2.54-2.28v-3.41h1.71v3.03     c0,0.56-0.01,1.28,0.83,1.28c0.81,0,0.81-0.72,0.81-1.28v-3.03h1.71V268.67z"></path>				<path class="st0" d="M3185.98,265.26h2.81c1.85,0,2.51,1.37,2.51,2.77c0,1.71-0.9,2.79-2.84,2.79h-2.48V265.26z M3187.7,269.39     h0.67c1.06,0,1.22-0.86,1.22-1.39c0-0.35-0.1-1.32-1.35-1.32h-0.55V269.39z"></path>				<path class="st0" d="M3191.89,265.26h4.6v1.43h-2.89v0.69h2.62v1.32h-2.62v0.69h2.97v1.42h-4.69V265.26z"></path>				<path class="st0" d="M3197.22,265.26h1.75l1.62,2.97h0.02v-2.97h1.62v5.56h-1.67l-1.71-3.04h-0.02v3.04h-1.62V265.26z"></path>				<path class="st0" d="M3204.27,266.68h-1.56v-1.43h4.83v1.43h-1.56v4.13h-1.71V266.68z"></path>			</g>			<g>				<path class="st0" d="M3147.3,268.72l-1.93-3.47h1.87l0.92,2.02l0.95-2.02h1.85l-1.97,3.47v2.02h-1.69V268.72z"></path>				<path class="st0" d="M3153.64,265.12c1.67,0,2.78,1.2,2.78,2.88c0,1.68-1.12,2.88-2.78,2.88c-1.67,0-2.78-1.2-2.78-2.88     C3150.85,266.32,3151.97,265.12,3153.64,265.12z M3153.64,269.51c0.43,0,1.09-0.28,1.09-1.51s-0.66-1.51-1.09-1.51     c-0.43,0-1.09,0.28-1.09,1.51S3153.21,269.51,3153.64,269.51z"></path>				<path class="st0" d="M3161.97,268.62c0,1.53-0.81,2.25-2.5,2.25c-1.69,0-2.51-0.72-2.51-2.25v-3.37h1.69v2.99     c0,0.55-0.01,1.26,0.82,1.26c0.8,0,0.8-0.71,0.8-1.26v-2.99h1.69V268.62z"></path>				<path class="st0" d="M3162.67,265.25h3.22c0.95,0,1.79,0.53,1.79,1.57c0,0.57-0.26,1.17-0.82,1.38     c0.46,0.18,0.75,0.68,0.81,1.37c0.02,0.26,0.02,0.94,0.18,1.18h-1.69c-0.08-0.28-0.12-0.56-0.14-0.85     c-0.04-0.52-0.09-1.07-0.76-1.07h-0.9v1.92h-1.69V265.25z M3164.36,267.65h0.88c0.32,0,0.75-0.05,0.75-0.55     c0-0.35-0.19-0.55-0.84-0.55h-0.79V267.65z"></path>				<path class="st0" d="M3168.1,271.76c-0.01-0.01-0.02-0.01-0.02-0.01c-0.53-0.32-1.17-0.28-1.75-0.34     c-4.17-0.42-8.5-0.25-12.67,0.32c-2.22,0.3-4.45,0.61-6.67,0.91c-0.18,0.02-0.42,0-0.46-0.21c-0.04-0.23,0.18-0.39,0.35-0.46     c-0.26,0.11-0.59,0.07-0.74,0.46c-0.13,0.34,0.07,0.68,0.34,0.79c0.21,0.09,0.44,0.06,0.66,0.03c4.23-0.54,8.5-0.74,12.74-0.88     c1.25-0.04,2.5-0.06,3.75-0.06c1.06,0,2.12,0.01,3.19,0.01c0.21,0,0.48,0.05,0.52,0.31c0.05,0.26-0.19,0.49-0.22,0.76     c0.37,0,0.74-0.18,1.02-0.48c0.12-0.13,0.23-0.29,0.26-0.48C3168.48,272.1,3168.31,271.88,3168.1,271.76z"></path>			</g>		</g>	</g></g>
  <rect x="-1786.83" y="-229.82" style="fill:none;" width="595.54" height="96.92"></rect>
  <text transform="matrix(1 0 0 1 -1785.6464 -188.5161)" class="st0" style="font-family:'BrandonGrotesque-Regular'; font-size:59px;">BROUGHT TO YOU BY</text>
  <g>	<g>		<path class="st0" d="M3812.6,1331.66c0,119.39-97.11,216.54-216.49,216.54c-119.38,0-216.5-97.15-216.5-216.54v-116.87h-71.02   v116.87c0,158.54,128.98,287.52,287.52,287.52c158.54,0,287.52-128.98,287.52-287.52v-116.87h-71.03V1331.66z"></path>		<path class="st0" d="M3448.1,1182.31c-76.92,0-139.49-62.59-139.49-139.54V983.6h68.97v59.17c0,38.87,31.64,70.54,70.52,70.54   c38.89,0,70.54-31.66,70.54-70.54V983.6h68.97v59.17C3587.6,1119.72,3525.03,1182.31,3448.1,1182.31z"></path>		<path class="st0" d="M3756.36,917.76c-72.94,0-132.25,59.35-132.25,132.27c0,72.93,59.31,132.24,132.25,132.24   c72.93,0,132.27-59.31,132.27-132.24C3888.62,977.11,3829.28,917.76,3756.36,917.76z M3689.95,1050.03   c0-36.63,29.78-66.43,66.41-66.43c36.62,0,66.43,29.81,66.43,66.43c0,6.36-0.93,12.51-2.61,18.34l-41.25-41.26l-45.54,45.55   l41.21,41.22c-5.81,1.64-11.92,2.56-18.23,2.56C3719.73,1116.44,3689.95,1086.63,3689.95,1050.03z"></path>	</g></g>
  <g>	<g>		<path class="st0" d="M1312.56,1357.7c0,14.01-7.56,20.63-23.41,20.63c-15.85,0-23.49-6.62-23.49-20.63v-30.84h15.85v27.39   c0,5.07-0.07,11.55,7.71,11.55c7.49,0,7.49-6.48,7.49-11.55v-27.39h15.85V1357.7z"></path>		<path class="st0" d="M1319.18,1326.86h16.21l14.98,26.89h0.14v-26.89h14.98v50.27h-15.42l-15.78-27.46h-0.14v27.46h-14.98V1326.86   z"></path>		<path class="st0" d="M1372.35,1326.86h15.85v50.27h-15.85V1326.86z"></path>		<path class="st0" d="M1419.46,1325.67c15.63,0,26.08,10.98,26.08,26.33c0,15.35-10.45,26.33-26.08,26.33   c-15.63,0-26.08-10.98-26.08-26.33C1393.38,1336.65,1403.83,1325.67,1419.46,1325.67z M1419.46,1365.79   c4.03,0,10.23-2.6,10.23-13.8c0-11.19-6.19-13.8-10.23-13.8c-4.03,0-10.23,2.6-10.23,13.8   C1409.23,1363.19,1415.43,1365.79,1419.46,1365.79z"></path>		<path class="st0" d="M1450.87,1326.86h16.21l14.98,26.89h0.14v-26.89h14.98v50.27h-15.42l-15.78-27.46h-0.14v27.46h-14.98V1326.86   z"></path>	</g>	<g>		<g>			<path class="st0" d="M1335.67,1276.29c0,1.22,0.22,2.38,0.58,3.39c1.15,3.1,4.61,3.75,7.56,3.75c2.59,0,6.56-0.86,6.56-4.68    c0-2.59-2.23-3.39-11.09-5.91c-8.14-2.31-17.43-4.54-17.43-14.91c0-11.89,10.16-17,20.75-17c11.17,0,21.11,4.32,21.47,16.79    h-14.98c0.29-1.95-0.5-3.24-1.87-4.11c-1.37-0.94-3.03-1.3-4.68-1.3c-2.16,0-5.69,0.58-5.69,3.46c0.22,3.6,7.71,4.61,14.91,6.48    c7.28,2.09,14.48,5.33,14.48,14.84c0,13.4-12.25,17.72-23.77,17.72c-5.76,0-22.62-2.09-22.62-18.51H1335.67z"></path>			<path class="st0" d="M1381.7,1255.33h-14.41v-13.18h44.66v13.18h-14.41v38.25h-15.85V1255.33z"></path>			<path class="st0" d="M1463.03,1273.7c0,14.34-7.56,21.11-23.41,21.11c-15.85,0-23.49-6.77-23.49-21.11v-31.55h15.85v28.02    c0,5.19-0.07,11.81,7.71,11.81c7.49,0,7.49-6.63,7.49-11.81v-28.02h15.85V1273.7z"></path>			<path class="st0" d="M1469.58,1242.14h26.01c17.07,0,23.2,12.68,23.2,25.65c0,15.85-8.36,25.79-26.3,25.79h-22.91V1242.14z     M1485.43,1280.4h6.2c9.8,0,11.31-8,11.31-12.82c0-3.24-0.94-12.25-12.46-12.25h-5.04V1280.4z"></path>			<path class="st0" d="M1524.19,1242.14h42.58v13.18h-26.73v6.41h24.28v12.25h-24.28v6.41h27.52v13.18h-43.37V1242.14z"></path>			<path class="st0" d="M1573.54,1242.14h16.21l14.98,27.52h0.14v-27.52h14.98v51.44h-15.42l-15.78-28.1h-0.14v28.1h-14.98V1242.14z    "></path>			<path class="st0" d="M1638.73,1255.33h-14.41v-13.18h44.66v13.18h-14.41v38.25h-15.85V1255.33z"></path>		</g>		<g>			<path class="st0" d="M1111.72,1274.22l-17.86-32.09h17.29l8.47,18.71l8.82-18.71h17.15l-18.22,32.09v18.71h-15.65V1274.22z"></path>			<path class="st0" d="M1170.35,1240.92c15.44,0,25.76,11.1,25.76,26.61c0,15.51-10.32,26.61-25.76,26.61s-25.76-11.1-25.76-26.61    C1144.59,1252.02,1154.91,1240.92,1170.35,1240.92z M1170.35,1281.47c3.98,0,10.1-2.63,10.1-13.95c0-11.31-6.12-13.95-10.1-13.95    c-3.98,0-10.1,2.63-10.1,13.95C1160.25,1278.84,1166.37,1281.47,1170.35,1281.47z"></path>			<path class="st0" d="M1247.41,1273.29c0,14.16-7.47,20.85-23.12,20.85c-15.65,0-23.2-6.69-23.2-20.85v-31.16h15.65v27.68    c0,5.12-0.07,11.67,7.61,11.67c7.4,0,7.4-6.55,7.4-11.67v-27.68h15.65V1273.29z"></path>			<path class="st0" d="M1253.88,1242.13h29.81c8.82,0,16.58,4.91,16.58,14.52c0,5.27-2.42,10.82-7.61,12.74    c4.27,1.64,6.9,6.33,7.47,12.67c0.21,2.42,0.21,8.68,1.71,10.89h-15.65c-0.78-2.56-1.07-5.19-1.28-7.83    c-0.36-4.84-0.85-9.89-7.04-9.89h-8.33v17.72h-15.65V1242.13z M1269.53,1264.33h8.18c2.92,0,6.9-0.5,6.9-5.05    c0-3.2-1.78-5.05-7.76-5.05h-7.33V1264.33z"></path>			<path class="st0" d="M1304.19,1302.28c-0.07-0.05-0.15-0.09-0.22-0.14c-4.93-2.97-10.8-2.58-16.19-3.12    c-38.55-3.92-78.62-2.32-117.19,2.94c-20.58,2.81-41.16,5.63-61.74,8.44c-1.66,0.23-3.85,0.02-4.23-1.99    c-0.4-2.09,1.63-3.58,3.28-4.29c-2.41,1.04-5.43,0.63-6.86,4.23c-1.24,3.13,0.67,6.33,3.12,7.35c1.94,0.81,4.06,0.54,6.12,0.28    c39.1-5,78.63-6.88,117.85-8.13c11.57-0.37,23.14-0.56,34.7-0.51c9.82,0.04,19.65,0.09,29.47,0.11c1.94,0,4.4,0.48,4.82,2.83    c0.44,2.43-1.8,4.49-1.99,6.99c3.42-0.03,6.84-1.65,9.45-4.47c1.1-1.19,2.09-2.65,2.45-4.4    C1307.63,1305.51,1306.09,1303.47,1304.19,1302.28z"></path>		</g>	</g></g>
  <g>	<path class="st0" d="M3954.87,988.92c0-1.12,0.89-2.12,2.12-2.12h26c13.17,0,23.99,9.04,23.99,20.75c0,8.59-7.7,14.84-12.94,17.63  c5.91,2.45,14.95,7.92,14.95,18.19c0,12.5-11.05,21.53-24.32,21.53h-27.67c-1.23,0-2.12-1-2.12-2.12V988.92z M3980.97,1018.48  c4.24,0,7.81-3.57,7.81-8.03s-3.57-7.59-7.81-7.59h-8.7v15.62H3980.97z M3982.42,1048.94c4.35,0,8.03-3.57,8.03-8.14  c0-4.46-4.8-7.81-9.15-7.81h-9.04v15.95H3982.42z"></path>	<path class="st0" d="M4023.14,988.92c0-1.12,0.89-2.12,2.12-2.12h33.36c13.39,0,24.32,10.82,24.32,24.1  c0,10.26-6.81,18.52-16.51,22.42l15.29,28.34c0.78,1.45,0,3.24-1.9,3.24h-14.84c-0.89,0-1.56-0.56-1.79-1l-14.84-29.57h-7.7v28.45  c0,1.12-1,2.12-2.12,2.12h-13.28c-1.23,0-2.12-1-2.12-2.12V988.92z M4057.17,1020.16c4.57,0,8.48-4.24,8.48-8.93  c0-4.69-3.91-8.48-8.48-8.48h-16.51v17.41H4057.17z"></path>	<path class="st0" d="M4132.25,985.68c22.31,0,40.17,17.96,40.17,40.28c0,22.31-17.85,40.05-40.17,40.05  c-22.31,0-40.05-17.74-40.05-40.05C4092.19,1003.65,4109.93,985.68,4132.25,985.68z M4132.25,1048.16  c12.27,0,22.31-10.04,22.31-22.2c0-12.27-10.04-22.43-22.31-22.43c-12.16,0-22.2,10.15-22.2,22.43  C4110.04,1038.12,4120.08,1048.16,4132.25,1048.16z"></path>	<path class="st0" d="M4184.79,988.92c0-1.12,1-2.12,2.12-2.12h13.72c1.23,0,2.12,1,2.12,2.12v45.19c0,7.81,5.8,14.06,13.72,14.06  c8.03,0,13.94-6.25,13.94-14.06v-45.19c0-1.12,0.89-2.12,2.12-2.12h13.72c1.12,0,2.12,1,2.12,2.12V1035  c0,16.96-14.28,31.02-31.91,31.02c-17.52,0-31.69-14.06-31.69-31.02V988.92z"></path>	<path class="st0" d="M4300.81,985.79c9.37,0,19.64,3.9,27.22,10.49c1,0.78,1.12,2.12,0.22,3.01l-8.81,9.37  c-0.89,0.78-2.12,0.78-3.01,0.11c-4.24-3.91-9.15-5.36-14.62-5.36c-12.16,0-21.98,10.26-21.98,22.54c0,12.16,9.93,22.2,22.09,22.2  c3.24,0,6.58-0.45,9.93-1.78v-6.47h-7.03c-1.23,0-2.12-0.89-2.12-2.01v-11.05c0-1.23,0.89-2.12,2.12-2.12h22.43  c1.12,0,2.01,1,2.01,2.12l0.11,30.01c0,0.56-0.45,1.45-0.89,1.79c0,0-11.49,7.25-27.67,7.25c-22.2,0-40.05-17.63-40.05-39.94  C4260.75,1003.65,4278.61,985.79,4300.81,985.79z"></path>	<path class="st0" d="M4344.65,988.92c0-1.12,1-2.12,2.12-2.12h13.28c1.23,0,2.12,1,2.12,2.12v28.12h31.91v-28.12  c0-1.12,0.89-2.12,2.12-2.12h13.28c1.12,0,2.12,1,2.12,2.12v73.86c0,1.12-1,2.12-2.12,2.12h-13.28c-1.23,0-2.12-1-2.12-2.12v-29.34  h-31.91v29.34c0,1.12-0.89,2.12-2.12,2.12h-13.28c-1.12,0-2.12-1-2.12-2.12V988.92z"></path>	<path class="st0" d="M4440.81,1003.2h-15.95c-1.23,0-2.12-1-2.12-2.12v-12.16c0-1.12,0.89-2.12,2.12-2.12h49.54  c1.23,0,2.12,1,2.12,2.12v12.16c0,1.12-0.89,2.12-2.12,2.12h-15.95v59.58c0,1.12-1,2.12-2.12,2.12h-13.39c-1.12,0-2.12-1-2.12-2.12  V1003.2z"></path>	<path class="st0" d="M3964.91,1105h-15.95c-1.23,0-2.12-1-2.12-2.12v-12.16c0-1.12,0.89-2.12,2.12-2.12h49.54  c1.23,0,2.12,1,2.12,2.12v12.16c0,1.12-0.89,2.12-2.12,2.12h-15.95v59.58c0,1.12-1,2.12-2.12,2.12h-13.39c-1.12,0-2.12-1-2.12-2.12  V1105z"></path>	<path class="st0" d="M4045.68,1087.49c22.31,0,40.17,17.96,40.17,40.28c0,22.31-17.85,40.05-40.17,40.05s-40.05-17.74-40.05-40.05  C4005.63,1105.45,4023.36,1087.49,4045.68,1087.49z M4045.68,1149.96c12.27,0,22.31-10.04,22.31-22.2  c0-12.27-10.04-22.43-22.31-22.43c-12.16,0-22.2,10.15-22.2,22.43C4023.48,1139.92,4033.52,1149.96,4045.68,1149.96z"></path>	<path class="st0" d="M4138.38,1129.1l-24.66-37.26c-0.89-1.45,0-3.24,1.79-3.24h14.5c0.89,0,1.45,0.56,1.79,1l15.51,22.87  l15.51-22.87c0.33-0.45,0.78-1,1.79-1h14.5c1.79,0,2.68,1.79,1.79,3.24l-24.99,37.15v35.59c0,1.12-1,2.12-2.12,2.12h-13.28  c-1.23,0-2.12-1-2.12-2.12V1129.1z"></path>	<path class="st0" d="M4222.72,1087.49c22.31,0,40.17,17.96,40.17,40.28c0,22.31-17.85,40.05-40.17,40.05  c-22.31,0-40.05-17.74-40.05-40.05C4182.67,1105.45,4200.4,1087.49,4222.72,1087.49z M4222.72,1149.96  c12.27,0,22.31-10.04,22.31-22.2c0-12.27-10.04-22.43-22.31-22.43c-12.16,0-22.2,10.15-22.2,22.43  C4200.52,1139.92,4210.56,1149.96,4222.72,1149.96z"></path>	<path class="st0" d="M4275.26,1090.72c0-1.12,1-2.12,2.12-2.12h13.72c1.23,0,2.12,1,2.12,2.12v45.19c0,7.81,5.8,14.06,13.72,14.06  c8.03,0,13.94-6.25,13.94-14.06v-45.19c0-1.12,0.89-2.12,2.12-2.12h13.72c1.12,0,2.12,1,2.12,2.12v46.08  c0,16.96-14.28,31.02-31.91,31.02c-17.52,0-31.69-14.06-31.69-31.02V1090.72z"></path>	<path class="st0" d="M4381.46,1090.72c0-1.12,0.89-2.12,2.12-2.12h25.99c13.17,0,23.99,9.04,23.99,20.75  c0,8.59-7.7,14.84-12.94,17.63c5.91,2.45,14.95,7.92,14.95,18.19c0,12.5-11.05,21.53-24.32,21.53h-27.67c-1.23,0-2.12-1-2.12-2.12  V1090.72z M4407.57,1120.29c4.24,0,7.81-3.57,7.81-8.03c0-4.46-3.57-7.59-7.81-7.59h-8.7v15.62H4407.57z M4409.02,1150.74  c4.35,0,8.03-3.57,8.03-8.14c0-4.46-4.8-7.81-9.15-7.81h-9.04v15.95H4409.02z"></path>	<path class="st0" d="M4463.79,1129.1l-24.66-37.26c-0.89-1.45,0-3.24,1.79-3.24h14.5c0.89,0,1.45,0.56,1.79,1l15.51,22.87  l15.51-22.87c0.33-0.45,0.78-1,1.79-1h14.5c1.79,0,2.68,1.79,1.79,3.24l-24.99,37.15v35.59c0,1.12-1,2.12-2.12,2.12h-13.28  c-1.23,0-2.12-1-2.12-2.12V1129.1z"></path>	<path class="st0" d="M3969.26,1287.57l-24.66-37.26c-0.89-1.45,0-3.24,1.78-3.24h14.5c0.89,0,1.45,0.56,1.79,1l15.51,22.87  l15.51-22.87c0.34-0.45,0.78-1,1.79-1h14.5c1.79,0,2.68,1.79,1.79,3.24l-24.99,37.15v35.59c0,1.12-1,2.12-2.12,2.12h-13.28  c-1.23,0-2.12-1-2.12-2.12V1287.57z"></path>	<path class="st0" d="M4053.6,1245.95c22.31,0,40.16,17.96,40.16,40.28c0,22.31-17.85,40.05-40.16,40.05s-40.05-17.74-40.05-40.05  C4013.55,1263.91,4031.29,1245.95,4053.6,1245.95z M4053.6,1308.43c12.27,0,22.31-10.04,22.31-22.2  c0-12.27-10.04-22.42-22.31-22.42c-12.16,0-22.2,10.15-22.2,22.42C4031.4,1298.39,4041.44,1308.43,4053.6,1308.43z"></path>	<path class="st0" d="M4106.14,1249.19c0-1.12,1-2.12,2.12-2.12h13.72c1.23,0,2.12,1,2.12,2.12v45.19c0,7.81,5.8,14.06,13.72,14.06  c8.03,0,13.95-6.25,13.95-14.06v-45.19c0-1.12,0.89-2.12,2.12-2.12h13.72c1.12,0,2.12,1,2.12,2.12v46.08  c0,16.96-14.28,31.02-31.91,31.02c-17.52,0-31.69-14.06-31.69-31.02V1249.19z"></path>	<path class="st0" d="M4187.69,1249.19c0-1.12,0.89-2.12,2.12-2.12h33.36c13.39,0,24.32,10.82,24.32,24.1  c0,10.26-6.81,18.52-16.51,22.42l15.29,28.34c0.78,1.45,0,3.24-1.9,3.24h-14.84c-0.89,0-1.56-0.56-1.79-1l-14.84-29.56h-7.7v28.45  c0,1.12-1,2.12-2.12,2.12h-13.28c-1.23,0-2.12-1-2.12-2.12V1249.19z M4221.72,1280.42c4.57,0,8.48-4.24,8.48-8.93  c0-4.69-3.91-8.48-8.48-8.48h-16.51v17.4H4221.72z"></path>	<path class="st0" d="M3950.4,1437.75l5.24-9.26c0.89-1.45,3.01-1.23,3.79-0.67c0.45,0.22,8.48,6.14,15.84,6.14  c4.46,0,7.7-2.79,7.7-6.69c0-4.69-3.91-8.26-11.49-11.27c-9.59-3.79-21.64-11.27-21.64-24.66c0-11.05,8.59-22.2,25.77-22.2  c11.6,0,20.53,5.91,23.88,8.37c1.34,0.78,1.12,2.79,0.67,3.57l-5.69,8.59c-0.78,1.23-2.79,2.23-3.79,1.45  c-1-0.56-9.15-6.69-15.95-6.69c-4.02,0-7.03,2.68-7.03,5.69c0,4.13,3.35,7.25,12.16,10.82c8.7,3.46,22.54,10.26,22.54,25.44  c0,11.49-9.93,23.09-26.33,23.09c-14.5,0-22.54-6.03-25.1-8.59C3949.85,1439.75,3949.51,1439.31,3950.4,1437.75z"></path>	<path class="st0" d="M4026.04,1386.65h-15.95c-1.23,0-2.12-1-2.12-2.12v-12.16c0-1.12,0.89-2.12,2.12-2.12h49.54  c1.23,0,2.12,1,2.12,2.12v12.16c0,1.12-0.89,2.12-2.12,2.12h-15.95v59.58c0,1.12-1,2.12-2.12,2.12h-13.39c-1.12,0-2.12-1-2.12-2.12  V1386.65z"></path>	<path class="st0" d="M4071.78,1372.37c0-1.12,1-2.12,2.12-2.12h13.72c1.23,0,2.12,1,2.12,2.12v45.19c0,7.81,5.8,14.06,13.72,14.06  c8.03,0,13.94-6.25,13.94-14.06v-45.19c0-1.12,0.89-2.12,2.12-2.12h13.72c1.12,0,2.12,1,2.12,2.12v46.08  c0,16.96-14.28,31.02-31.91,31.02c-17.52,0-31.69-14.06-31.69-31.02V1372.37z"></path>	<path class="st0" d="M4153.33,1372.37c0-1.12,0.89-2.12,2.01-2.12h27.22c21.53,0,39.16,17.52,39.16,38.94  c0,21.64-17.63,39.16-39.16,39.16h-27.22c-1.12,0-2.01-1-2.01-2.12V1372.37z M4181.44,1431.83c12.61,0,21.76-9.93,21.76-22.65  c0-12.61-9.15-22.54-21.76-22.54h-10.71v45.19H4181.44z"></path>	<path class="st0" d="M4235.32,1372.37c0-1.12,0.89-2.12,2.12-2.12h46.19c1.23,0,2.12,1,2.12,2.12v12.16c0,1.12-0.89,2.12-2.12,2.12  h-30.9v13.84h25.44c1.12,0,2.12,1,2.12,2.12v12.16c0,1.23-1,2.12-2.12,2.12h-25.44v15.06h30.9c1.23,0,2.12,1,2.12,2.12v12.16  c0,1.12-0.89,2.12-2.12,2.12h-46.19c-1.23,0-2.12-1-2.12-2.12V1372.37z"></path>	<path class="st0" d="M4300.58,1371.14c0-1.12,1-2.01,2.12-2.01h2.79l44.52,42.84h0.11v-39.61c0-1.12,0.89-2.12,2.12-2.12h13.39  c1.12,0,2.12,1,2.12,2.12v75.09c0,1.12-1,2.01-2.12,2.01h-1.79c-0.33,0-1.23-0.33-1.45-0.56l-44.07-44.29h-0.11v41.62  c0,1.12-0.89,2.12-2.12,2.12h-13.28c-1.12,0-2.12-1-2.12-2.12L4300.58,1371.14z"></path>	<path class="st0" d="M4396.97,1386.65h-15.95c-1.23,0-2.12-1-2.12-2.12v-12.16c0-1.12,0.89-2.12,2.12-2.12h49.54  c1.23,0,2.12,1,2.12,2.12v12.16c0,1.12-0.89,2.12-2.12,2.12h-15.95v59.58c0,1.12-1,2.12-2.12,2.12h-13.39c-1.12,0-2.12-1-2.12-2.12  V1386.65z"></path>	<path class="st0" d="M3953.75,1474.17c0-1.12,1-2.12,2.12-2.12h13.72c1.23,0,2.12,1,2.12,2.12v45.19c0,7.81,5.8,14.06,13.72,14.06  c8.03,0,13.95-6.25,13.95-14.06v-45.19c0-1.12,0.89-2.12,2.12-2.12h13.72c1.12,0,2.12,1,2.12,2.12v46.08  c0,16.96-14.28,31.02-31.91,31.02c-17.52,0-31.69-14.06-31.69-31.02V1474.17z"></path>	<path class="st0" d="M4035.19,1472.94c0-1.12,1-2.01,2.12-2.01h2.79l44.52,42.84h0.11v-39.61c0-1.12,0.89-2.12,2.12-2.12h13.39  c1.12,0,2.12,1,2.12,2.12v75.09c0,1.12-1,2.01-2.12,2.01h-1.79c-0.33,0-1.23-0.33-1.45-0.56l-44.07-44.29h-0.11v41.62  c0,1.12-0.89,2.12-2.12,2.12h-13.28c-1.12,0-2.12-1-2.12-2.12L4035.19,1472.94z"></path>	<path class="st0" d="M4121.53,1474.17c0-1.12,1-2.12,2.12-2.12h13.39c1.12,0,2.12,1,2.12,2.12v73.86c0,1.12-1,2.12-2.12,2.12  h-13.39c-1.12,0-2.12-1-2.12-2.12V1474.17z"></path>	<path class="st0" d="M4192.71,1470.93c22.31,0,40.17,17.96,40.17,40.28c0,22.31-17.85,40.05-40.17,40.05s-40.05-17.74-40.05-40.05  C4152.66,1488.9,4170.4,1470.93,4192.71,1470.93z M4192.71,1533.41c12.27,0,22.31-10.04,22.31-22.2  c0-12.27-10.04-22.43-22.31-22.43c-12.16,0-22.2,10.15-22.2,22.43C4170.51,1523.37,4180.55,1533.41,4192.71,1533.41z"></path>	<path class="st0" d="M4246.25,1472.94c0-1.12,1-2.01,2.12-2.01h2.79l44.52,42.84h0.11v-39.61c0-1.12,0.89-2.12,2.12-2.12h13.39  c1.12,0,2.12,1,2.12,2.12v75.09c0,1.12-1,2.01-2.12,2.01h-1.79c-0.33,0-1.23-0.33-1.45-0.56l-44.07-44.29h-0.11v41.62  c0,1.12-0.89,2.12-2.12,2.12h-13.28c-1.12,0-2.12-1-2.12-2.12L4246.25,1472.94z"></path>	<path class="st0" d="M4241.96,1336.85c-0.11-0.06-0.21-0.11-0.32-0.17c-7.07-3.66-15.45-3.24-23.14-3.96  c-55.06-5.17-112.23-3.66-167.22,2.31c-29.34,3.19-58.68,6.38-88.02,9.58c-2.36,0.26-5.49-0.02-6.05-2.45  c-0.59-2.54,2.29-4.33,4.63-5.17c-3.43,1.24-7.74,0.71-9.74,5.05c-1.74,3.78,1.03,7.69,4.53,8.95c2.78,1,5.81,0.7,8.73,0.41  c55.75-5.65,112.15-7.5,168.1-8.59c16.51-0.32,33.02-0.43,49.52-0.25c14.02,0.15,28.04,0.33,42.07,0.45  c2.77,0.02,6.28,0.63,6.91,3.48c0.66,2.96-2.52,5.43-2.76,8.46c4.88,0,9.75-1.93,13.44-5.32c1.56-1.43,2.96-3.2,3.45-5.31  C4246.9,1340.8,4244.68,1338.32,4241.96,1336.85z"></path></g>
  <g>	<g>		<g>			<path class="st0" d="M3342.48,192.92c0,9.65-7.85,17.5-17.5,17.5c-9.65,0-17.5-7.85-17.5-17.5v-9.45h-5.74v9.45    c0,12.81,10.42,23.24,23.24,23.24c12.81,0,23.24-10.43,23.24-23.24v-9.45h-5.74V192.92z"></path>			<path class="st0" d="M3313.02,180.85c-6.22,0-11.27-5.06-11.27-11.28v-4.78h5.57v4.78c0,3.14,2.56,5.7,5.7,5.7    c3.14,0,5.7-2.56,5.7-5.7v-4.78h5.57v4.78C3324.29,175.79,3319.24,180.85,3313.02,180.85z"></path>			<path class="st0" d="M3337.93,159.47c-5.9,0-10.69,4.8-10.69,10.69c0,5.89,4.79,10.69,10.69,10.69c5.89,0,10.69-4.79,10.69-10.69    C3348.62,164.27,3343.83,159.47,3337.93,159.47z M3332.57,170.16c0-2.96,2.41-5.37,5.37-5.37s5.37,2.41,5.37,5.37    c0,0.51-0.08,1.01-0.21,1.48l-3.33-3.33l-3.68,3.68l3.33,3.33c-0.47,0.13-0.96,0.21-1.47,0.21    C3334.97,175.53,3332.57,173.12,3332.57,170.16z"></path>		</g>	</g>	<g>		<g>			<path class="st0" d="M3353.87,162.41c0-0.09,0.07-0.17,0.17-0.17h1.95c1.05,0,1.81,0.7,1.81,1.61c0,0.67-0.5,1.15-0.9,1.38    c0.46,0.19,1.09,0.62,1.09,1.42c0,0.97-0.8,1.68-1.9,1.68h-2.04c-0.1,0-0.17-0.08-0.17-0.17V162.41z M3356.07,167.54    c0.53,0,0.94-0.41,0.94-0.95c0-0.53-0.5-0.91-1.07-0.91h-1.19v1.86H3356.07z M3355.93,164.89c0.56,0,0.9-0.41,0.9-0.93    c0-0.53-0.34-0.9-0.9-0.9h-1.17v1.83H3355.93z"></path>			<path class="st0" d="M3359.28,162.41c0-0.09,0.07-0.17,0.17-0.17h2.36c1.04,0,1.9,0.83,1.9,1.86c0,0.8-0.53,1.46-1.29,1.76    l1.19,2.21c0.06,0.11,0,0.25-0.15,0.25h-0.68c-0.07,0-0.12-0.04-0.14-0.08l-1.16-2.3h-1.31v2.22c0,0.09-0.08,0.17-0.17,0.17    h-0.57c-0.1,0-0.17-0.08-0.17-0.17V162.41z M3361.74,165.21c0.57,0,1.06-0.48,1.06-1.08c0-0.57-0.5-1.03-1.06-1.03h-1.55v2.11    H3361.74z"></path>			<path class="st0" d="M3367.73,162.16c1.74,0,3.13,1.4,3.13,3.14c0,1.74-1.39,3.12-3.13,3.12c-1.74,0-3.12-1.38-3.12-3.12    C3364.61,163.56,3366,162.16,3367.73,162.16z M3367.73,167.55c1.24,0,2.26-1.01,2.26-2.25c0-1.23-1.02-2.27-2.26-2.27    c-1.23,0-2.25,1.03-2.25,2.27C3365.48,166.54,3366.5,167.55,3367.73,167.55z"></path>			<path class="st0" d="M3372.03,162.41c0-0.09,0.08-0.17,0.17-0.17h0.58c0.1,0,0.17,0.08,0.17,0.17v3.59    c0,0.87,0.56,1.55,1.44,1.55c0.9,0,1.46-0.67,1.46-1.53v-3.61c0-0.09,0.07-0.17,0.17-0.17h0.58c0.09,0,0.17,0.08,0.17,0.17v3.65    c0,1.32-1,2.36-2.37,2.36c-1.37,0-2.36-1.03-2.36-2.36V162.41z"></path>			<path class="st0" d="M3381.05,162.16c0.83,0,1.52,0.3,2.11,0.81c0.07,0.07,0.08,0.17,0.01,0.24c-0.13,0.14-0.26,0.27-0.39,0.41    c-0.07,0.08-0.14,0.07-0.23-0.01c-0.41-0.36-0.95-0.59-1.48-0.59c-1.23,0-2.18,1.04-2.18,2.26c0,1.21,0.95,2.25,2.18,2.25    c0.72,0,1.22-0.26,1.3-0.3v-0.97h-0.85c-0.1,0-0.17-0.07-0.17-0.16v-0.5c0-0.1,0.07-0.17,0.17-0.17h1.58    c0.09,0,0.16,0.08,0.16,0.17c0,0.7,0.01,1.41,0.01,2.1c0,0.04-0.03,0.11-0.07,0.14c0,0-0.9,0.57-2.16,0.57    c-1.73,0-3.13-1.38-3.13-3.12C3377.92,163.56,3379.32,162.16,3381.05,162.16z"></path>			<path class="st0" d="M3384.64,162.41c0-0.09,0.08-0.17,0.17-0.17h0.57c0.1,0,0.17,0.08,0.17,0.17v2.43h3.18v-2.43    c0-0.09,0.07-0.17,0.17-0.17h0.57c0.09,0,0.17,0.08,0.17,0.17v5.76c0,0.09-0.08,0.17-0.17,0.17h-0.57c-0.1,0-0.17-0.08-0.17-0.17    v-2.51h-3.18v2.51c0,0.09-0.07,0.17-0.17,0.17h-0.57c-0.09,0-0.17-0.08-0.17-0.17V162.41z"></path>			<path class="st0" d="M3392.15,163.07h-1.42c-0.1,0-0.17-0.08-0.17-0.17v-0.49c0-0.09,0.07-0.17,0.17-0.17h3.74    c0.1,0,0.17,0.08,0.17,0.17v0.49c0,0.09-0.07,0.17-0.17,0.17h-1.42v5.1c0,0.09-0.08,0.17-0.17,0.17h-0.57    c-0.09,0-0.17-0.08-0.17-0.17V163.07z"></path>			<path class="st0" d="M3354.7,171.44h-1.42c-0.1,0-0.17-0.08-0.17-0.17v-0.49c0-0.09,0.07-0.17,0.17-0.17h3.74    c0.1,0,0.17,0.08,0.17,0.17v0.49c0,0.09-0.07,0.17-0.17,0.17h-1.42v5.1c0,0.09-0.08,0.17-0.17,0.17h-0.57    c-0.09,0-0.17-0.08-0.17-0.17V171.44z"></path>			<path class="st0" d="M3360.72,170.53c1.74,0,3.13,1.4,3.13,3.14c0,1.74-1.39,3.12-3.13,3.12s-3.12-1.38-3.12-3.12    C3357.6,171.93,3358.98,170.53,3360.72,170.53z M3360.72,175.92c1.24,0,2.26-1.01,2.26-2.25c0-1.23-1.02-2.27-2.26-2.27    c-1.23,0-2.25,1.03-2.25,2.27C3358.47,174.91,3359.48,175.92,3360.72,175.92z"></path>			<path class="st0" d="M3368.2,173.77l-2.03-2.9c-0.07-0.11,0-0.25,0.14-0.25h0.64c0.07,0,0.11,0.04,0.14,0.08l1.57,2.22l1.57-2.22    c0.03-0.03,0.08-0.08,0.14-0.08h0.65c0.14,0,0.21,0.14,0.14,0.25l-2.06,2.9v2.77c0,0.09-0.08,0.17-0.17,0.17h-0.57    c-0.1,0-0.17-0.08-0.17-0.17V173.77z"></path>			<path class="st0" d="M3374.57,170.53c1.74,0,3.13,1.4,3.13,3.14c0,1.74-1.39,3.12-3.13,3.12s-3.12-1.38-3.12-3.12    C3371.45,171.93,3372.83,170.53,3374.57,170.53z M3374.57,175.92c1.24,0,2.26-1.01,2.26-2.25c0-1.23-1.02-2.27-2.26-2.27    c-1.23,0-2.25,1.03-2.25,2.27C3372.32,174.91,3373.33,175.92,3374.57,175.92z"></path>			<path class="st0" d="M3378.86,170.78c0-0.09,0.08-0.17,0.17-0.17h0.58c0.1,0,0.17,0.08,0.17,0.17v3.59    c0,0.87,0.56,1.55,1.44,1.55c0.9,0,1.46-0.67,1.46-1.53v-3.61c0-0.09,0.07-0.17,0.17-0.17h0.58c0.09,0,0.17,0.08,0.17,0.17v3.65    c0,1.32-1,2.36-2.37,2.36c-1.36,0-2.36-1.03-2.36-2.36V170.78z"></path>			<path class="st0" d="M3387.11,170.78c0-0.09,0.07-0.17,0.17-0.17h1.95c1.05,0,1.81,0.7,1.81,1.61c0,0.67-0.5,1.15-0.9,1.38    c0.46,0.19,1.09,0.62,1.09,1.42c0,0.97-0.8,1.68-1.9,1.68h-2.04c-0.1,0-0.17-0.08-0.17-0.17V170.78z M3389.31,175.9    c0.53,0,0.94-0.41,0.94-0.95c0-0.53-0.5-0.91-1.07-0.91h-1.19v1.86H3389.31z M3389.17,173.26c0.56,0,0.9-0.41,0.9-0.93    c0-0.53-0.34-0.9-0.9-0.9H3388v1.83H3389.17z"></path>			<path class="st0" d="M3393.68,173.77l-2.03-2.9c-0.07-0.11,0-0.25,0.14-0.25h0.64c0.07,0,0.11,0.04,0.14,0.08l1.57,2.22    l1.57-2.22c0.03-0.03,0.08-0.08,0.14-0.08h0.65c0.14,0,0.21,0.14,0.14,0.25l-2.06,2.9v2.77c0,0.09-0.08,0.17-0.17,0.17h-0.57    c-0.1,0-0.17-0.08-0.17-0.17V173.77z"></path>		</g>		<g>			<path class="st0" d="M3355.48,188.58l-2.33-3.52c-0.08-0.14,0-0.31,0.17-0.31h1.37c0.08,0,0.14,0.05,0.17,0.09l1.46,2.16    l1.46-2.16c0.03-0.04,0.07-0.09,0.17-0.09h1.37c0.17,0,0.25,0.17,0.17,0.31l-2.36,3.51v3.36c0,0.11-0.09,0.2-0.2,0.2h-1.25    c-0.12,0-0.2-0.09-0.2-0.2V188.58z"></path>			<path class="st0" d="M3363.44,184.66c2.11,0,3.79,1.7,3.79,3.8s-1.68,3.78-3.79,3.78s-3.78-1.67-3.78-3.78    S3361.33,184.66,3363.44,184.66z M3363.44,190.55c1.16,0,2.11-0.95,2.11-2.1c0-1.16-0.95-2.12-2.11-2.12    c-1.15,0-2.1,0.96-2.1,2.12C3361.34,189.61,3362.29,190.55,3363.44,190.55z"></path>			<path class="st0" d="M3368.4,184.96c0-0.11,0.09-0.2,0.2-0.2h1.3c0.12,0,0.2,0.09,0.2,0.2v4.26c0,0.74,0.55,1.33,1.3,1.33    c0.76,0,1.32-0.59,1.32-1.33v-4.26c0-0.11,0.08-0.2,0.2-0.2h1.3c0.11,0,0.2,0.09,0.2,0.2v4.35c0,1.6-1.35,2.93-3.01,2.93    c-1.65,0-2.99-1.33-2.99-2.93V184.96z"></path>			<path class="st0" d="M3376.09,184.96c0-0.11,0.08-0.2,0.2-0.2h3.15c1.26,0,2.3,1.02,2.3,2.27c0,0.97-0.64,1.75-1.56,2.12    l1.44,2.67c0.07,0.14,0,0.31-0.18,0.31h-1.4c-0.08,0-0.15-0.05-0.17-0.09l-1.4-2.79h-0.73v2.68c0,0.11-0.09,0.2-0.2,0.2h-1.25    c-0.12,0-0.2-0.09-0.2-0.2V184.96z M3379.31,187.91c0.43,0,0.8-0.4,0.8-0.84s-0.37-0.8-0.8-0.8h-1.56v1.64H3379.31z"></path>			<path class="st0" d="M3353.7,202.76l0.49-0.87c0.08-0.14,0.28-0.12,0.36-0.06c0.04,0.02,0.8,0.58,1.5,0.58    c0.42,0,0.73-0.26,0.73-0.63c0-0.44-0.37-0.78-1.08-1.06c-0.91-0.36-2.04-1.06-2.04-2.33c0-1.04,0.81-2.1,2.43-2.1    c1.09,0,1.94,0.56,2.25,0.79c0.13,0.07,0.11,0.26,0.06,0.34l-0.54,0.81c-0.07,0.12-0.26,0.21-0.36,0.14    c-0.09-0.05-0.86-0.63-1.51-0.63c-0.38,0-0.66,0.25-0.66,0.54c0,0.39,0.32,0.68,1.15,1.02c0.82,0.33,2.13,0.97,2.13,2.4    c0,1.08-0.94,2.18-2.48,2.18c-1.37,0-2.13-0.57-2.37-0.81C3353.65,202.95,3353.62,202.9,3353.7,202.76z"></path>			<path class="st0" d="M3360.84,197.93h-1.51c-0.12,0-0.2-0.09-0.2-0.2v-1.15c0-0.11,0.08-0.2,0.2-0.2h4.67    c0.12,0,0.2,0.09,0.2,0.2v1.15c0,0.11-0.08,0.2-0.2,0.2h-1.51v5.62c0,0.11-0.09,0.2-0.2,0.2h-1.26c-0.11,0-0.2-0.09-0.2-0.2    V197.93z"></path>			<path class="st0" d="M3365.16,196.59c0-0.11,0.09-0.2,0.2-0.2h1.3c0.12,0,0.2,0.09,0.2,0.2v4.26c0,0.74,0.55,1.33,1.3,1.33    c0.76,0,1.32-0.59,1.32-1.33v-4.26c0-0.11,0.08-0.2,0.2-0.2h1.3c0.11,0,0.2,0.09,0.2,0.2v4.35c0,1.6-1.35,2.93-3.01,2.93    c-1.65,0-2.99-1.33-2.99-2.93V196.59z"></path>			<path class="st0" d="M3372.85,196.59c0-0.11,0.08-0.2,0.19-0.2h2.57c2.03,0,3.7,1.65,3.7,3.67c0,2.04-1.66,3.7-3.7,3.7h-2.57    c-0.11,0-0.19-0.09-0.19-0.2V196.59z M3375.5,202.2c1.19,0,2.05-0.94,2.05-2.14c0-1.19-0.86-2.13-2.05-2.13h-1.01v4.26H3375.5z"></path>			<path class="st0" d="M3380.59,196.59c0-0.11,0.08-0.2,0.2-0.2h4.36c0.12,0,0.2,0.09,0.2,0.2v1.15c0,0.11-0.08,0.2-0.2,0.2h-2.92    v1.31h2.4c0.11,0,0.2,0.09,0.2,0.2v1.15c0,0.12-0.09,0.2-0.2,0.2h-2.4v1.42h2.92c0.12,0,0.2,0.09,0.2,0.2v1.15    c0,0.11-0.08,0.2-0.2,0.2h-4.36c-0.12,0-0.2-0.09-0.2-0.2V196.59z"></path>			<path class="st0" d="M3386.75,196.47c0-0.11,0.09-0.19,0.2-0.19h0.26l4.2,4.04h0.01v-3.74c0-0.11,0.08-0.2,0.2-0.2h1.26    c0.11,0,0.2,0.09,0.2,0.2v7.09c0,0.11-0.09,0.19-0.2,0.19h-0.17c-0.03,0-0.12-0.03-0.14-0.05l-4.16-4.18h-0.01v3.93    c0,0.11-0.08,0.2-0.2,0.2h-1.25c-0.11,0-0.2-0.09-0.2-0.2L3386.75,196.47z"></path>			<path class="st0" d="M3395.84,197.93h-1.51c-0.12,0-0.2-0.09-0.2-0.2v-1.15c0-0.11,0.08-0.2,0.2-0.2h4.67    c0.12,0,0.2,0.09,0.2,0.2v1.15c0,0.11-0.08,0.2-0.2,0.2h-1.51v5.62c0,0.11-0.09,0.2-0.2,0.2h-1.26c-0.11,0-0.2-0.09-0.2-0.2    V197.93z"></path>			<path class="st0" d="M3354.02,206.19c0-0.11,0.09-0.2,0.2-0.2h1.29c0.12,0,0.2,0.09,0.2,0.2v4.26c0,0.74,0.55,1.33,1.29,1.33    c0.76,0,1.32-0.59,1.32-1.33v-4.26c0-0.11,0.08-0.2,0.2-0.2h1.3c0.11,0,0.2,0.09,0.2,0.2v4.35c0,1.6-1.35,2.93-3.01,2.93    c-1.65,0-2.99-1.33-2.99-2.93V206.19z"></path>			<path class="st0" d="M3361.7,206.08c0-0.11,0.09-0.19,0.2-0.19h0.26l4.2,4.04h0.01v-3.74c0-0.11,0.08-0.2,0.2-0.2h1.26    c0.11,0,0.2,0.09,0.2,0.2v7.09c0,0.11-0.09,0.19-0.2,0.19h-0.17c-0.03,0-0.12-0.03-0.14-0.05l-4.16-4.18h-0.01v3.93    c0,0.11-0.08,0.2-0.2,0.2h-1.25c-0.11,0-0.2-0.09-0.2-0.2L3361.7,206.08z"></path>			<path class="st0" d="M3369.85,206.19c0-0.11,0.09-0.2,0.2-0.2h1.26c0.11,0,0.2,0.09,0.2,0.2v6.97c0,0.11-0.09,0.2-0.2,0.2h-1.26    c-0.11,0-0.2-0.09-0.2-0.2V206.19z"></path>			<path class="st0" d="M3376.57,205.89c2.11,0,3.79,1.7,3.79,3.8c0,2.11-1.68,3.78-3.79,3.78s-3.78-1.67-3.78-3.78    C3372.79,207.58,3374.46,205.89,3376.57,205.89z M3376.57,211.78c1.16,0,2.11-0.95,2.11-2.1c0-1.16-0.95-2.12-2.11-2.12    c-1.15,0-2.1,0.96-2.1,2.12C3374.47,210.84,3375.42,211.78,3376.57,211.78z"></path>			<path class="st0" d="M3381.62,206.08c0-0.11,0.09-0.19,0.2-0.19h0.26l4.2,4.04h0.01v-3.74c0-0.11,0.08-0.2,0.2-0.2h1.26    c0.11,0,0.2,0.09,0.2,0.2v7.09c0,0.11-0.09,0.19-0.2,0.19h-0.17c-0.03,0-0.12-0.03-0.14-0.05l-4.16-4.18h-0.01v3.93    c0,0.11-0.08,0.2-0.2,0.2h-1.25c-0.11,0-0.2-0.09-0.2-0.2L3381.62,206.08z"></path>			<path class="st0" d="M3381.22,193.24c-0.01-0.01-0.02-0.01-0.03-0.02c-0.67-0.35-1.46-0.31-2.18-0.37    c-5.2-0.49-10.59-0.35-15.78,0.22c-2.77,0.3-5.54,0.6-8.31,0.9c-0.22,0.02-0.52,0-0.57-0.23c-0.06-0.24,0.22-0.41,0.44-0.49    c-0.32,0.12-0.73,0.07-0.92,0.48c-0.16,0.36,0.1,0.73,0.43,0.84c0.26,0.09,0.55,0.07,0.82,0.04c5.26-0.53,10.58-0.71,15.86-0.81    c1.56-0.03,3.12-0.04,4.67-0.02c1.32,0.01,2.65,0.03,3.97,0.04c0.26,0,0.59,0.06,0.65,0.33c0.06,0.28-0.24,0.51-0.26,0.8    c0.46,0,0.92-0.18,1.27-0.5c0.15-0.14,0.28-0.3,0.33-0.5C3381.68,193.61,3381.47,193.37,3381.22,193.24z"></path>		</g>	</g></g>
  <g>	<path class="st0" d="M3342.48,47.13c0,9.65-7.85,17.5-17.5,17.5c-9.65,0-17.5-7.85-17.5-17.5v-9.45h-5.74v9.45  c0,12.81,10.42,23.24,23.24,23.24c12.81,0,23.24-10.43,23.24-23.24v-9.45h-5.74V47.13z"></path>	<path class="st0" d="M3313.02,35.06c-6.22,0-11.27-5.06-11.27-11.28V19h5.57v4.78c0,3.14,2.56,5.7,5.7,5.7c3.14,0,5.7-2.56,5.7-5.7  V19h5.57v4.78C3324.29,30,3319.24,35.06,3313.02,35.06z"></path>	<path class="st0" d="M3337.93,13.68c-5.9,0-10.69,4.8-10.69,10.69c0,5.89,4.79,10.69,10.69,10.69c5.89,0,10.69-4.79,10.69-10.69  C3348.62,18.47,3343.83,13.68,3337.93,13.68z M3332.57,24.37c0-2.96,2.41-5.37,5.37-5.37s5.37,2.41,5.37,5.37  c0,0.51-0.08,1.01-0.21,1.48l-3.33-3.33l-3.68,3.68l3.33,3.33c-0.47,0.13-0.96,0.21-1.47,0.21  C3334.97,29.74,3332.57,27.33,3332.57,24.37z"></path></g>
  <g>	<path class="st0" d="M3302.49,4.98c0-0.08,0.06-0.15,0.15-0.15h1.79c0.97,0,1.66,0.64,1.66,1.48c0,0.61-0.45,1.05-0.83,1.27  c0.42,0.18,1,0.57,1,1.3c0,0.89-0.73,1.54-1.74,1.54h-1.87c-0.09,0-0.15-0.07-0.15-0.15V4.98z M3304.51,9.67  c0.49,0,0.86-0.37,0.86-0.87c0-0.49-0.46-0.84-0.98-0.84h-1.09v1.71H3304.51z M3304.38,7.25c0.51,0,0.82-0.37,0.82-0.85  c0-0.49-0.31-0.82-0.82-0.82h-1.08v1.68H3304.38z"></path>	<path class="st0" d="M3307.45,4.98c0-0.08,0.06-0.15,0.15-0.15h2.17c0.96,0,1.74,0.76,1.74,1.71c0,0.73-0.49,1.34-1.18,1.62  l1.09,2.03c0.06,0.1,0,0.23-0.14,0.23h-0.62c-0.06,0-0.11-0.04-0.13-0.07l-1.06-2.11h-1.2v2.03c0,0.08-0.07,0.15-0.15,0.15h-0.52  c-0.09,0-0.15-0.07-0.15-0.15V4.98z M3309.71,7.54c0.52,0,0.97-0.44,0.97-0.99c0-0.52-0.45-0.95-0.97-0.95h-1.42v1.94H3309.71z"></path>	<path class="st0" d="M3315.21,4.75c1.6,0,2.87,1.28,2.87,2.88c0,1.6-1.28,2.86-2.87,2.86c-1.6,0-2.86-1.27-2.86-2.86  C3312.35,6.03,3313.62,4.75,3315.21,4.75z M3315.21,9.69c1.14,0,2.07-0.93,2.07-2.07c0-1.13-0.93-2.08-2.07-2.08  c-1.13,0-2.07,0.95-2.07,2.08C3313.15,8.77,3314.08,9.69,3315.21,9.69z"></path>	<path class="st0" d="M3319.15,4.98c0-0.08,0.07-0.15,0.15-0.15h0.53c0.09,0,0.15,0.07,0.15,0.15v3.29c0,0.8,0.51,1.42,1.32,1.42  c0.82,0,1.34-0.61,1.34-1.4V4.98c0-0.08,0.06-0.15,0.15-0.15h0.53c0.08,0,0.15,0.07,0.15,0.15v3.35c0,1.21-0.92,2.16-2.18,2.16  c-1.25,0-2.16-0.95-2.16-2.16V4.98z"></path>	<path class="st0" d="M3327.43,4.75c0.77,0,1.4,0.28,1.94,0.74c0.06,0.06,0.07,0.16,0.01,0.22c-0.12,0.13-0.24,0.25-0.36,0.37  c-0.06,0.07-0.13,0.06-0.21-0.01c-0.38-0.33-0.87-0.54-1.36-0.54c-1.13,0-2,0.96-2,2.07c0,1.11,0.87,2.07,2,2.07  c0.66,0,1.12-0.24,1.2-0.27V8.51h-0.78c-0.09,0-0.15-0.06-0.15-0.14V7.9c0-0.09,0.06-0.15,0.15-0.15h1.45  c0.08,0,0.14,0.07,0.14,0.15c0,0.64,0.01,1.29,0.01,1.93c0,0.04-0.03,0.1-0.06,0.13c0,0-0.82,0.53-1.98,0.53  c-1.59,0-2.87-1.27-2.87-2.86C3324.56,6.03,3325.84,4.75,3327.43,4.75z"></path>	<path class="st0" d="M3330.73,4.98c0-0.08,0.07-0.15,0.15-0.15h0.53c0.09,0,0.15,0.07,0.15,0.15V7.2h2.92V4.98  c0-0.08,0.06-0.15,0.15-0.15h0.53c0.08,0,0.15,0.07,0.15,0.15v5.28c0,0.08-0.07,0.15-0.15,0.15h-0.53c-0.09,0-0.15-0.07-0.15-0.15  V7.95h-2.92v2.31c0,0.08-0.06,0.15-0.15,0.15h-0.53c-0.08,0-0.15-0.07-0.15-0.15V4.98z"></path>	<path class="st0" d="M3337.62,5.57h-1.3c-0.09,0-0.15-0.07-0.15-0.15V4.98c0-0.08,0.06-0.15,0.15-0.15h3.43  c0.09,0,0.15,0.07,0.15,0.15v0.45c0,0.08-0.06,0.15-0.15,0.15h-1.3v4.68c0,0.08-0.07,0.15-0.15,0.15h-0.53  c-0.08,0-0.15-0.07-0.15-0.15V5.57z"></path>	<g>		<path class="st0" d="M3344.49,5.61h-1.3c-0.09,0-0.15-0.07-0.15-0.15V5.02c0-0.08,0.06-0.15,0.15-0.15h3.43   c0.09,0,0.15,0.07,0.15,0.15v0.45c0,0.08-0.06,0.15-0.15,0.15h-1.3v4.68c0,0.08-0.07,0.15-0.15,0.15h-0.53   c-0.08,0-0.15-0.07-0.15-0.15V5.61z"></path>		<path class="st0" d="M3350.01,4.78c1.6,0,2.87,1.28,2.87,2.88c0,1.6-1.28,2.86-2.87,2.86s-2.86-1.27-2.86-2.86   C3347.15,6.07,3348.42,4.78,3350.01,4.78z M3350.01,9.73c1.14,0,2.07-0.93,2.07-2.07c0-1.13-0.93-2.08-2.07-2.08   c-1.13,0-2.07,0.95-2.07,2.08C3347.95,8.81,3348.88,9.73,3350.01,9.73z"></path>		<path class="st0" d="M3356.87,7.76l-1.87-2.66c-0.06-0.1,0-0.23,0.13-0.23h0.59c0.06,0,0.1,0.04,0.13,0.07l1.44,2.03l1.44-2.03   c0.02-0.03,0.07-0.07,0.13-0.07h0.6c0.13,0,0.19,0.13,0.13,0.23l-1.89,2.66v2.54c0,0.08-0.07,0.15-0.15,0.15h-0.53   c-0.09,0-0.15-0.07-0.15-0.15V7.76z"></path>		<path class="st0" d="M3362.72,4.78c1.6,0,2.87,1.28,2.87,2.88c0,1.6-1.28,2.86-2.87,2.86s-2.86-1.27-2.86-2.86   C3359.86,6.07,3361.12,4.78,3362.72,4.78z M3362.72,9.73c1.14,0,2.07-0.93,2.07-2.07c0-1.13-0.93-2.08-2.07-2.08   c-1.13,0-2.07,0.95-2.07,2.08C3360.65,8.81,3361.59,9.73,3362.72,9.73z"></path>		<path class="st0" d="M3366.66,5.02c0-0.08,0.07-0.15,0.15-0.15h0.53c0.09,0,0.15,0.07,0.15,0.15v3.29c0,0.8,0.51,1.42,1.32,1.42   c0.82,0,1.34-0.61,1.34-1.4V5.02c0-0.08,0.06-0.15,0.15-0.15h0.53c0.08,0,0.15,0.07,0.15,0.15v3.35c0,1.21-0.92,2.16-2.18,2.16   c-1.25,0-2.16-0.95-2.16-2.16V5.02z"></path>		<path class="st0" d="M3374.23,5.02c0-0.08,0.06-0.15,0.15-0.15h1.79c0.97,0,1.66,0.64,1.66,1.48c0,0.61-0.45,1.05-0.83,1.27   c0.42,0.18,1,0.57,1,1.3c0,0.89-0.73,1.54-1.74,1.54h-1.87c-0.09,0-0.15-0.07-0.15-0.15V5.02z M3376.25,9.71   c0.49,0,0.86-0.37,0.86-0.87c0-0.49-0.46-0.84-0.98-0.84h-1.09v1.71H3376.25z M3376.12,7.29c0.51,0,0.82-0.37,0.82-0.85   c0-0.49-0.31-0.82-0.82-0.82h-1.08v1.68H3376.12z"></path>		<path class="st0" d="M3380.26,7.76l-1.87-2.66c-0.06-0.1,0-0.23,0.13-0.23h0.59c0.06,0,0.1,0.04,0.13,0.07l1.44,2.03l1.44-2.03   c0.02-0.03,0.07-0.07,0.13-0.07h0.6c0.13,0,0.19,0.13,0.13,0.23l-1.89,2.66v2.54c0,0.08-0.07,0.15-0.15,0.15h-0.53   c-0.09,0-0.15-0.07-0.15-0.15V7.76z"></path>	</g></g>
  <g>	<path class="st0" d="M3354.64,30.71l-2.51-3.8c-0.09-0.15,0-0.33,0.18-0.33h1.48c0.09,0,0.15,0.06,0.18,0.1l1.58,2.33l1.58-2.33  c0.03-0.05,0.08-0.1,0.18-0.1h1.48c0.18,0,0.27,0.18,0.18,0.33l-2.55,3.79v3.63c0,0.11-0.1,0.22-0.22,0.22h-1.35  c-0.13,0-0.22-0.1-0.22-0.22V30.71z"></path>	<path class="st0" d="M3363.24,26.46c2.27,0,4.09,1.83,4.09,4.11s-1.82,4.08-4.09,4.08c-2.27,0-4.08-1.81-4.08-4.08  S3360.96,26.46,3363.24,26.46z M3363.24,32.83c1.25,0,2.27-1.02,2.27-2.26c0-1.25-1.02-2.29-2.27-2.29c-1.24,0-2.26,1.03-2.26,2.29  C3360.97,31.81,3362,32.83,3363.24,32.83z"></path>	<path class="st0" d="M3368.59,26.79c0-0.11,0.1-0.22,0.22-0.22h1.4c0.13,0,0.22,0.1,0.22,0.22v4.61c0,0.8,0.59,1.43,1.4,1.43  c0.82,0,1.42-0.64,1.42-1.43v-4.61c0-0.11,0.09-0.22,0.22-0.22h1.4c0.11,0,0.22,0.1,0.22,0.22v4.7c0,1.73-1.46,3.16-3.25,3.16  c-1.79,0-3.23-1.43-3.23-3.16V26.79z"></path>	<path class="st0" d="M3376.91,26.79c0-0.11,0.09-0.22,0.22-0.22h3.4c1.36,0,2.48,1.1,2.48,2.46c0,1.05-0.69,1.89-1.68,2.29  l1.56,2.89c0.08,0.15,0,0.33-0.19,0.33h-1.51c-0.09,0-0.16-0.06-0.18-0.1l-1.51-3.01h-0.78v2.9c0,0.11-0.1,0.22-0.22,0.22h-1.35  c-0.13,0-0.22-0.1-0.22-0.22V26.79z M3380.38,29.98c0.47,0,0.86-0.43,0.86-0.91s-0.4-0.86-0.86-0.86h-1.68v1.77H3380.38z"></path>	<path class="st0" d="M3352.72,46.01l0.53-0.94c0.09-0.15,0.31-0.13,0.39-0.07c0.05,0.02,0.86,0.63,1.61,0.63  c0.46,0,0.78-0.28,0.78-0.68c0-0.48-0.4-0.84-1.17-1.15c-0.98-0.39-2.21-1.15-2.21-2.51c0-1.13,0.88-2.26,2.63-2.26  c1.18,0,2.09,0.6,2.43,0.85c0.14,0.08,0.11,0.28,0.07,0.36l-0.58,0.88c-0.08,0.12-0.28,0.23-0.39,0.15  c-0.1-0.06-0.93-0.68-1.63-0.68c-0.41,0-0.72,0.27-0.72,0.58c0,0.42,0.34,0.74,1.24,1.1c0.89,0.35,2.3,1.05,2.3,2.59  c0,1.17-1.01,2.35-2.68,2.35c-1.48,0-2.3-0.61-2.56-0.88C3352.66,46.22,3352.63,46.17,3352.72,46.01z"></path>	<path class="st0" d="M3360.43,40.81h-1.63c-0.13,0-0.22-0.1-0.22-0.22v-1.24c0-0.11,0.09-0.22,0.22-0.22h5.05  c0.12,0,0.22,0.1,0.22,0.22v1.24c0,0.11-0.09,0.22-0.22,0.22h-1.63v6.07c0,0.11-0.1,0.22-0.22,0.22h-1.36  c-0.11,0-0.22-0.1-0.22-0.22V40.81z"></path>	<path class="st0" d="M3365.09,39.35c0-0.11,0.1-0.22,0.22-0.22h1.4c0.12,0,0.22,0.1,0.22,0.22v4.61c0,0.8,0.59,1.43,1.4,1.43  c0.82,0,1.42-0.64,1.42-1.43v-4.61c0-0.11,0.09-0.22,0.22-0.22h1.4c0.11,0,0.22,0.1,0.22,0.22v4.7c0,1.73-1.46,3.16-3.25,3.16  c-1.79,0-3.23-1.43-3.23-3.16V39.35z"></path>	<path class="st0" d="M3373.4,39.35c0-0.11,0.09-0.22,0.2-0.22h2.78c2.19,0,3.99,1.79,3.99,3.97c0,2.21-1.8,3.99-3.99,3.99h-2.78  c-0.11,0-0.2-0.1-0.2-0.22V39.35z M3376.27,45.41c1.29,0,2.22-1.01,2.22-2.31c0-1.29-0.93-2.3-2.22-2.3h-1.09v4.61H3376.27z"></path>	<path class="st0" d="M3381.76,39.35c0-0.11,0.09-0.22,0.22-0.22h4.71c0.12,0,0.22,0.1,0.22,0.22v1.24c0,0.11-0.09,0.22-0.22,0.22  h-3.15v1.41h2.59c0.11,0,0.22,0.1,0.22,0.22v1.24c0,0.12-0.1,0.22-0.22,0.22h-2.59v1.54h3.15c0.12,0,0.22,0.1,0.22,0.22v1.24  c0,0.11-0.09,0.22-0.22,0.22h-4.71c-0.13,0-0.22-0.1-0.22-0.22V39.35z"></path>	<path class="st0" d="M3388.41,39.22c0-0.11,0.1-0.2,0.22-0.2h0.28l4.54,4.37h0.01v-4.04c0-0.11,0.09-0.22,0.22-0.22h1.36  c0.11,0,0.22,0.1,0.22,0.22V47c0,0.11-0.1,0.2-0.22,0.2h-0.18c-0.03,0-0.13-0.03-0.15-0.06l-4.49-4.52h-0.01v4.24  c0,0.11-0.09,0.22-0.22,0.22h-1.35c-0.11,0-0.22-0.1-0.22-0.22L3388.41,39.22z"></path>	<path class="st0" d="M3398.24,40.81h-1.63c-0.12,0-0.22-0.1-0.22-0.22v-1.24c0-0.11,0.09-0.22,0.22-0.22h5.05  c0.13,0,0.22,0.1,0.22,0.22v1.24c0,0.11-0.09,0.22-0.22,0.22h-1.63v6.07c0,0.11-0.1,0.22-0.22,0.22h-1.36  c-0.11,0-0.22-0.1-0.22-0.22V40.81z"></path>	<path class="st0" d="M3353.06,49.73c0-0.11,0.1-0.22,0.22-0.22h1.4c0.13,0,0.22,0.1,0.22,0.22v4.61c0,0.8,0.59,1.43,1.4,1.43  c0.82,0,1.42-0.64,1.42-1.43v-4.61c0-0.11,0.09-0.22,0.22-0.22h1.4c0.11,0,0.22,0.1,0.22,0.22v4.7c0,1.73-1.46,3.16-3.25,3.16  c-1.79,0-3.23-1.43-3.23-3.16V49.73z"></path>	<path class="st0" d="M3361.36,49.6c0-0.11,0.1-0.2,0.22-0.2h0.28l4.54,4.37h0.01v-4.04c0-0.11,0.09-0.22,0.22-0.22h1.36  c0.11,0,0.22,0.1,0.22,0.22v7.65c0,0.11-0.1,0.2-0.22,0.2h-0.18c-0.03,0-0.13-0.03-0.15-0.06l-4.49-4.52h-0.01v4.24  c0,0.11-0.09,0.22-0.22,0.22h-1.35c-0.11,0-0.22-0.1-0.22-0.22L3361.36,49.6z"></path>	<path class="st0" d="M3370.16,49.73c0-0.11,0.1-0.22,0.22-0.22h1.36c0.11,0,0.22,0.1,0.22,0.22v7.53c0,0.11-0.1,0.22-0.22,0.22  h-1.36c-0.11,0-0.22-0.1-0.22-0.22V49.73z"></path>	<path class="st0" d="M3377.42,49.4c2.27,0,4.09,1.83,4.09,4.11c0,2.27-1.82,4.08-4.09,4.08c-2.27,0-4.08-1.81-4.08-4.08  C3373.34,51.23,3375.14,49.4,3377.42,49.4z M3377.42,55.77c1.25,0,2.27-1.02,2.27-2.26c0-1.25-1.02-2.29-2.27-2.29  c-1.24,0-2.26,1.03-2.26,2.29C3375.16,54.74,3376.18,55.77,3377.42,55.77z"></path>	<path class="st0" d="M3382.88,49.6c0-0.11,0.1-0.2,0.22-0.2h0.28l4.54,4.37h0.01v-4.04c0-0.11,0.09-0.22,0.22-0.22h1.36  c0.11,0,0.22,0.1,0.22,0.22v7.65c0,0.11-0.1,0.2-0.22,0.2h-0.18c-0.03,0-0.12-0.03-0.15-0.06l-4.49-4.52h-0.01v4.24  c0,0.11-0.09,0.22-0.22,0.22h-1.35c-0.11,0-0.22-0.1-0.22-0.22L3382.88,49.6z"></path>	<path class="st0" d="M3382.44,35.73c-0.01-0.01-0.02-0.01-0.03-0.02c-0.72-0.37-1.57-0.33-2.36-0.4  c-5.61-0.53-11.44-0.37-17.05,0.24c-2.99,0.32-5.98,0.65-8.97,0.98c-0.24,0.03-0.56,0-0.62-0.25c-0.06-0.26,0.23-0.44,0.47-0.53  c-0.35,0.13-0.79,0.07-0.99,0.52c-0.18,0.39,0.1,0.78,0.46,0.91c0.28,0.1,0.59,0.07,0.89,0.04c5.68-0.58,11.43-0.77,17.14-0.88  c1.68-0.03,3.37-0.04,5.05-0.03c1.43,0.02,2.86,0.03,4.29,0.05c0.28,0,0.64,0.06,0.7,0.36c0.07,0.3-0.26,0.55-0.28,0.86  c0.5,0,0.99-0.2,1.37-0.54c0.16-0.15,0.3-0.33,0.35-0.54C3382.94,36.13,3382.72,35.88,3382.44,35.73z"></path></g>
  <g>	<g>		<path class="st0" d="M3319.54-228.53c0,9.65-7.85,17.5-17.5,17.5s-17.5-7.85-17.5-17.5v-9.45h-5.74v9.45   c0,12.81,10.42,23.24,23.24,23.24c12.81,0,23.24-10.43,23.24-23.24v-9.45h-5.74V-228.53z"></path>		<path class="st0" d="M3290.08-240.6c-6.22,0-11.27-5.06-11.27-11.28v-4.78h5.57v4.78c0,3.14,2.56,5.7,5.7,5.7   c3.14,0,5.7-2.56,5.7-5.7v-4.78h5.57v4.78C3301.35-245.66,3296.29-240.6,3290.08-240.6z"></path>		<path class="st0" d="M3314.99-261.98c-5.9,0-10.69,4.8-10.69,10.69c0,5.89,4.79,10.69,10.69,10.69c5.89,0,10.69-4.79,10.69-10.69   C3325.68-257.19,3320.89-261.98,3314.99-261.98z M3309.62-251.29c0-2.96,2.41-5.37,5.37-5.37c2.96,0,5.37,2.41,5.37,5.37   c0,0.51-0.07,1.01-0.21,1.48l-3.33-3.33l-3.68,3.68l3.33,3.33c-0.47,0.13-0.96,0.21-1.47,0.21   C3312.03-245.93,3309.62-248.34,3309.62-251.29z"></path>	</g>	<g>		<path class="st0" d="M3278.8-271.38c0-0.1,0.08-0.19,0.19-0.19h2.25c1.22,0,2.09,0.81,2.09,1.86c0,0.77-0.57,1.33-1.05,1.6   c0.53,0.22,1.26,0.71,1.26,1.64c0,1.13-0.93,1.94-2.19,1.94h-2.36c-0.11,0-0.19-0.09-0.19-0.19V-271.38z M3281.35-265.46   c0.61,0,1.09-0.47,1.09-1.1c0-0.61-0.58-1.06-1.24-1.06h-1.38v2.15H3281.35z M3281.19-268.51c0.64,0,1.04-0.47,1.04-1.08   c0-0.61-0.39-1.04-1.04-1.04h-1.36v2.11H3281.19z"></path>		<path class="st0" d="M3285.06-271.38c0-0.1,0.08-0.19,0.19-0.19h2.74c1.21,0,2.19,0.96,2.19,2.15c0,0.93-0.61,1.69-1.49,2.04   l1.38,2.56c0.07,0.13,0,0.29-0.17,0.29h-0.78c-0.08,0-0.14-0.05-0.16-0.09l-1.34-2.67h-1.52v2.57c0,0.1-0.09,0.19-0.19,0.19h-0.65   c-0.11,0-0.19-0.09-0.19-0.19V-271.38z M3287.91-268.15c0.65,0,1.23-0.55,1.23-1.25c0-0.65-0.57-1.2-1.23-1.2h-1.79v2.45H3287.91z   "></path>		<path class="st0" d="M3294.85-271.67c2.01,0,3.62,1.62,3.62,3.63c0,2.01-1.61,3.61-3.62,3.61c-2.01,0-3.61-1.6-3.61-3.61   C3291.24-270.05,3292.84-271.67,3294.85-271.67z M3294.85-265.43c1.44,0,2.62-1.17,2.62-2.61c0-1.43-1.18-2.63-2.62-2.63   c-1.43,0-2.61,1.2-2.61,2.63C3292.24-266.6,3293.42-265.43,3294.85-265.43z"></path>		<path class="st0" d="M3299.82-271.38c0-0.1,0.09-0.19,0.19-0.19h0.67c0.11,0,0.19,0.09,0.19,0.19v4.16c0,1.01,0.64,1.79,1.67,1.79   c1.04,0,1.69-0.77,1.69-1.77v-4.18c0-0.1,0.08-0.19,0.19-0.19h0.67c0.1,0,0.19,0.09,0.19,0.19v4.23c0,1.53-1.16,2.73-2.75,2.73   c-1.58,0-2.73-1.2-2.73-2.73V-271.38z"></path>		<path class="st0" d="M3310.26-271.67c0.97,0,1.76,0.35,2.45,0.94c0.08,0.08,0.09,0.2,0.01,0.28c-0.15,0.16-0.3,0.31-0.45,0.47   c-0.08,0.09-0.16,0.08-0.26-0.01c-0.47-0.41-1.1-0.68-1.71-0.68c-1.43,0-2.53,1.21-2.53,2.62c0,1.4,1.1,2.61,2.53,2.61   c0.84,0,1.41-0.3,1.51-0.34v-1.13h-0.99c-0.11,0-0.19-0.08-0.19-0.18v-0.58c0-0.11,0.08-0.19,0.19-0.19h1.83   c0.1,0,0.18,0.09,0.18,0.19c0,0.81,0.01,1.63,0.01,2.44c0,0.05-0.04,0.13-0.08,0.16c0,0-1.04,0.66-2.5,0.66   c-2,0-3.62-1.6-3.62-3.61C3306.64-270.05,3308.26-271.67,3310.26-271.67z"></path>		<path class="st0" d="M3314.42-271.38c0-0.1,0.09-0.19,0.19-0.19h0.66c0.11,0,0.19,0.09,0.19,0.19v2.81h3.68v-2.81   c0-0.1,0.08-0.19,0.19-0.19h0.66c0.1,0,0.19,0.09,0.19,0.19v6.66c0,0.1-0.09,0.19-0.19,0.19h-0.66c-0.11,0-0.19-0.09-0.19-0.19   v-2.91h-3.68v2.91c0,0.1-0.08,0.19-0.19,0.19h-0.66c-0.1,0-0.19-0.09-0.19-0.19V-271.38z"></path>		<path class="st0" d="M3323.11-270.63h-1.64c-0.11,0-0.19-0.09-0.19-0.19v-0.56c0-0.1,0.08-0.19,0.19-0.19h4.33   c0.11,0,0.19,0.09,0.19,0.19v0.56c0,0.1-0.08,0.19-0.19,0.19h-1.64v5.91c0,0.1-0.09,0.19-0.19,0.19h-0.66   c-0.1,0-0.19-0.09-0.19-0.19V-270.63z"></path>		<g>			<path class="st0" d="M3331.79-270.58h-1.64c-0.11,0-0.19-0.09-0.19-0.19v-0.56c0-0.1,0.08-0.19,0.19-0.19h4.33    c0.11,0,0.19,0.09,0.19,0.19v0.56c0,0.1-0.08,0.19-0.19,0.19h-1.64v5.91c0,0.1-0.09,0.19-0.19,0.19h-0.66    c-0.1,0-0.19-0.09-0.19-0.19V-270.58z"></path>			<path class="st0" d="M3338.75-271.62c2.01,0,3.62,1.62,3.62,3.63c0,2.01-1.61,3.61-3.62,3.61s-3.61-1.6-3.61-3.61    C3335.14-270,3336.74-271.62,3338.75-271.62z M3338.75-265.38c1.44,0,2.62-1.17,2.62-2.61c0-1.43-1.18-2.63-2.62-2.63    c-1.43,0-2.61,1.2-2.61,2.63C3336.14-266.55,3337.32-265.38,3338.75-265.38z"></path>			<path class="st0" d="M3347.4-267.87l-2.35-3.36c-0.08-0.13,0-0.29,0.16-0.29h0.74c0.08,0,0.13,0.05,0.16,0.09l1.82,2.57    l1.82-2.57c0.03-0.04,0.09-0.09,0.16-0.09h0.75c0.16,0,0.24,0.16,0.16,0.29l-2.38,3.35v3.21c0,0.1-0.09,0.19-0.19,0.19h-0.66    c-0.11,0-0.19-0.09-0.19-0.19V-267.87z"></path>			<path class="st0" d="M3354.78-271.62c2.01,0,3.62,1.62,3.62,3.63c0,2.01-1.61,3.61-3.62,3.61c-2.01,0-3.61-1.6-3.61-3.61    C3351.17-270,3352.77-271.62,3354.78-271.62z M3354.78-265.38c1.44,0,2.62-1.17,2.62-2.61c0-1.43-1.18-2.63-2.62-2.63    c-1.43,0-2.61,1.2-2.61,2.63C3352.17-266.55,3353.35-265.38,3354.78-265.38z"></path>			<path class="st0" d="M3359.75-271.33c0-0.1,0.09-0.19,0.19-0.19h0.67c0.11,0,0.19,0.09,0.19,0.19v4.16    c0,1.01,0.64,1.79,1.67,1.79c1.04,0,1.69-0.77,1.69-1.77v-4.18c0-0.1,0.08-0.19,0.19-0.19h0.67c0.1,0,0.19,0.09,0.19,0.19v4.23    c0,1.53-1.16,2.73-2.75,2.73c-1.58,0-2.73-1.2-2.73-2.73V-271.33z"></path>			<path class="st0" d="M3369.3-271.33c0-0.1,0.08-0.19,0.19-0.19h2.25c1.22,0,2.09,0.81,2.09,1.86c0,0.77-0.57,1.33-1.05,1.6    c0.53,0.22,1.26,0.71,1.26,1.64c0,1.13-0.93,1.94-2.19,1.94h-2.36c-0.11,0-0.19-0.09-0.19-0.19V-271.33z M3371.84-265.4    c0.61,0,1.09-0.47,1.09-1.1c0-0.61-0.58-1.06-1.24-1.06h-1.38v2.15H3371.84z M3371.68-268.46c0.64,0,1.04-0.47,1.04-1.08    c0-0.61-0.39-1.04-1.04-1.04h-1.36v2.11H3371.68z"></path>			<path class="st0" d="M3376.9-267.87l-2.35-3.36c-0.08-0.13,0-0.29,0.16-0.29h0.74c0.08,0,0.13,0.05,0.16,0.09l1.82,2.57    l1.82-2.57c0.03-0.04,0.09-0.09,0.16-0.09h0.75c0.16,0,0.24,0.16,0.16,0.29l-2.38,3.35v3.21c0,0.1-0.09,0.19-0.19,0.19h-0.66    c-0.11,0-0.19-0.09-0.19-0.19V-267.87z"></path>		</g>	</g>	<g>		<g>			<path class="st0" d="M3330.21-229.24l0.53-0.94c0.09-0.15,0.31-0.13,0.39-0.07c0.05,0.02,0.86,0.63,1.61,0.63    c0.45,0,0.78-0.28,0.78-0.68c0-0.48-0.4-0.84-1.17-1.15c-0.98-0.39-2.21-1.15-2.21-2.51c0-1.13,0.88-2.26,2.63-2.26    c1.18,0,2.09,0.6,2.43,0.85c0.14,0.08,0.11,0.28,0.07,0.36l-0.58,0.88c-0.08,0.12-0.28,0.23-0.39,0.15    c-0.1-0.06-0.93-0.68-1.63-0.68c-0.41,0-0.72,0.27-0.72,0.58c0,0.42,0.34,0.74,1.24,1.1c0.89,0.35,2.3,1.05,2.3,2.59    c0,1.17-1.01,2.35-2.68,2.35c-1.48,0-2.3-0.61-2.56-0.88C3330.15-229.03,3330.11-229.08,3330.21-229.24z"></path>			<path class="st0" d="M3337.92-234.45h-1.63c-0.12,0-0.22-0.1-0.22-0.22v-1.24c0-0.11,0.09-0.22,0.22-0.22h5.05    c0.13,0,0.22,0.1,0.22,0.22v1.24c0,0.11-0.09,0.22-0.22,0.22h-1.63v6.07c0,0.11-0.1,0.22-0.22,0.22h-1.36    c-0.11,0-0.22-0.1-0.22-0.22V-234.45z"></path>			<path class="st0" d="M3342.58-235.9c0-0.11,0.1-0.22,0.22-0.22h1.4c0.12,0,0.22,0.1,0.22,0.22v4.61c0,0.8,0.59,1.43,1.4,1.43    c0.82,0,1.42-0.64,1.42-1.43v-4.61c0-0.11,0.09-0.22,0.22-0.22h1.4c0.11,0,0.22,0.1,0.22,0.22v4.7c0,1.73-1.46,3.16-3.25,3.16    c-1.79,0-3.23-1.43-3.23-3.16V-235.9z"></path>			<path class="st0" d="M3350.89-235.9c0-0.11,0.09-0.22,0.2-0.22h2.78c2.19,0,3.99,1.79,3.99,3.97c0,2.21-1.8,3.99-3.99,3.99h-2.78    c-0.11,0-0.2-0.1-0.2-0.22V-235.9z M3353.76-229.84c1.29,0,2.22-1.01,2.22-2.31c0-1.29-0.93-2.3-2.22-2.3h-1.09v4.61H3353.76z"></path>			<path class="st0" d="M3359.25-235.9c0-0.11,0.09-0.22,0.22-0.22h4.71c0.12,0,0.22,0.1,0.22,0.22v1.24c0,0.11-0.09,0.22-0.22,0.22    h-3.15v1.41h2.59c0.11,0,0.22,0.1,0.22,0.22v1.24c0,0.12-0.1,0.22-0.22,0.22h-2.59v1.54h3.15c0.12,0,0.22,0.1,0.22,0.22v1.24    c0,0.11-0.09,0.22-0.22,0.22h-4.71c-0.12,0-0.22-0.1-0.22-0.22V-235.9z"></path>			<path class="st0" d="M3365.9-236.03c0-0.11,0.1-0.2,0.22-0.2h0.28l4.54,4.37h0.01v-4.04c0-0.11,0.09-0.22,0.22-0.22h1.36    c0.11,0,0.22,0.1,0.22,0.22v7.65c0,0.11-0.1,0.2-0.22,0.2h-0.18c-0.03,0-0.13-0.03-0.15-0.06l-4.49-4.52h-0.01v4.24    c0,0.11-0.09,0.22-0.22,0.22h-1.35c-0.11,0-0.22-0.1-0.22-0.22L3365.9-236.03z"></path>			<path class="st0" d="M3375.73-234.45h-1.63c-0.12,0-0.22-0.1-0.22-0.22v-1.24c0-0.11,0.09-0.22,0.22-0.22h5.05    c0.13,0,0.22,0.1,0.22,0.22v1.24c0,0.11-0.09,0.22-0.22,0.22h-1.63v6.07c0,0.11-0.1,0.22-0.22,0.22h-1.36    c-0.11,0-0.22-0.1-0.22-0.22V-234.45z"></path>		</g>		<g>			<path class="st0" d="M3330.15-225.06c0-0.11,0.1-0.22,0.22-0.22h1.4c0.13,0,0.22,0.1,0.22,0.22v4.61c0,0.8,0.59,1.43,1.4,1.43    c0.82,0,1.42-0.64,1.42-1.43v-4.61c0-0.11,0.09-0.22,0.22-0.22h1.4c0.11,0,0.22,0.1,0.22,0.22v4.7c0,1.73-1.46,3.16-3.25,3.16    c-1.79,0-3.23-1.43-3.23-3.16V-225.06z"></path>			<path class="st0" d="M3338.45-225.19c0-0.11,0.1-0.2,0.22-0.2h0.28l4.54,4.37h0.01v-4.04c0-0.11,0.09-0.22,0.22-0.22h1.36    c0.11,0,0.22,0.1,0.22,0.22v7.65c0,0.11-0.1,0.2-0.22,0.2h-0.18c-0.03,0-0.13-0.03-0.15-0.06l-4.49-4.52h-0.01v4.24    c0,0.11-0.09,0.22-0.22,0.22h-1.35c-0.11,0-0.22-0.1-0.22-0.22L3338.45-225.19z"></path>			<path class="st0" d="M3347.25-225.06c0-0.11,0.1-0.22,0.22-0.22h1.36c0.11,0,0.22,0.1,0.22,0.22v7.53c0,0.11-0.1,0.22-0.22,0.22    h-1.36c-0.11,0-0.22-0.1-0.22-0.22V-225.06z"></path>			<path class="st0" d="M3354.51-225.39c2.27,0,4.09,1.83,4.09,4.11c0,2.27-1.82,4.08-4.09,4.08c-2.27,0-4.08-1.81-4.08-4.08    C3350.42-223.56,3352.23-225.39,3354.51-225.39z M3354.51-219.02c1.25,0,2.27-1.02,2.27-2.26c0-1.25-1.02-2.29-2.27-2.29    c-1.24,0-2.26,1.03-2.26,2.29C3352.24-220.05,3353.27-219.02,3354.51-219.02z"></path>			<path class="st0" d="M3359.97-225.19c0-0.11,0.1-0.2,0.22-0.2h0.28l4.54,4.37h0.01v-4.04c0-0.11,0.09-0.22,0.22-0.22h1.36    c0.11,0,0.22,0.1,0.22,0.22v7.65c0,0.11-0.1,0.2-0.22,0.2h-0.18c-0.03,0-0.12-0.03-0.15-0.06l-4.49-4.52h-0.01v4.24    c0,0.11-0.09,0.22-0.22,0.22h-1.35c-0.11,0-0.22-0.1-0.22-0.22L3359.97-225.19z"></path>		</g>		<g>			<path class="st0" d="M3332.7-245.83l-2.51-3.8c-0.09-0.15,0-0.33,0.18-0.33h1.48c0.09,0,0.15,0.06,0.18,0.1l1.58,2.33l1.58-2.33    c0.03-0.05,0.08-0.1,0.18-0.1h1.48c0.18,0,0.27,0.18,0.18,0.33l-2.55,3.79v3.63c0,0.11-0.1,0.22-0.22,0.22h-1.35    c-0.12,0-0.22-0.1-0.22-0.22V-245.83z"></path>			<path class="st0" d="M3341.3-250.07c2.27,0,4.09,1.83,4.09,4.11c0,2.27-1.82,4.08-4.09,4.08c-2.27,0-4.08-1.81-4.08-4.08    C3337.21-248.24,3339.02-250.07,3341.3-250.07z M3341.3-243.71c1.25,0,2.27-1.02,2.27-2.26c0-1.25-1.02-2.29-2.27-2.29    c-1.24,0-2.26,1.03-2.26,2.29C3339.03-244.73,3340.06-243.71,3341.3-243.71z"></path>			<path class="st0" d="M3346.65-249.74c0-0.11,0.1-0.22,0.22-0.22h1.4c0.13,0,0.22,0.1,0.22,0.22v4.61c0,0.8,0.59,1.43,1.4,1.43    c0.82,0,1.42-0.64,1.42-1.43v-4.61c0-0.11,0.09-0.22,0.22-0.22h1.4c0.11,0,0.22,0.1,0.22,0.22v4.7c0,1.73-1.46,3.16-3.25,3.16    c-1.79,0-3.23-1.43-3.23-3.16V-249.74z"></path>			<path class="st0" d="M3354.96-249.74c0-0.11,0.09-0.22,0.22-0.22h3.4c1.36,0,2.48,1.1,2.48,2.46c0,1.05-0.69,1.89-1.68,2.29    l1.56,2.89c0.08,0.15,0,0.33-0.19,0.33h-1.51c-0.09,0-0.16-0.06-0.18-0.1l-1.51-3.01h-0.78v2.9c0,0.11-0.1,0.22-0.22,0.22h-1.35    c-0.13,0-0.22-0.1-0.22-0.22V-249.74z M3358.43-246.56c0.47,0,0.86-0.43,0.86-0.91c0-0.48-0.4-0.86-0.86-0.86h-1.68v1.77H3358.43    z"></path>			<path class="st0" d="M3360.5-240.81c-0.01-0.01-0.02-0.01-0.03-0.02c-0.72-0.37-1.57-0.33-2.36-0.4    c-5.61-0.53-11.44-0.37-17.05,0.24c-2.99,0.32-5.98,0.65-8.97,0.98c-0.24,0.03-0.56,0-0.62-0.25c-0.06-0.26,0.23-0.44,0.47-0.53    c-0.35,0.13-0.79,0.07-0.99,0.52c-0.18,0.39,0.1,0.78,0.46,0.91c0.28,0.1,0.59,0.07,0.89,0.04c5.68-0.58,11.43-0.76,17.14-0.88    c1.68-0.03,3.37-0.04,5.05-0.03c1.43,0.02,2.86,0.03,4.29,0.05c0.28,0,0.64,0.06,0.7,0.36c0.07,0.3-0.26,0.55-0.28,0.86    c0.5,0,0.99-0.2,1.37-0.54c0.16-0.15,0.3-0.33,0.35-0.54C3361-240.41,3360.77-240.66,3360.5-240.81z"></path>		</g>	</g></g>
  <g>	<path class="st0" d="M3592.1-117.2c0,9.65-7.85,17.5-17.5,17.5s-17.5-7.85-17.5-17.5v-9.45h-5.74v9.45  c0,12.81,10.42,23.24,23.24,23.24c12.81,0,23.24-10.43,23.24-23.24v-9.45h-5.74V-117.2z"></path>	<path class="st0" d="M3562.64-129.27c-6.22,0-11.27-5.06-11.27-11.28v-4.78h5.57v4.78c0,3.14,2.56,5.7,5.7,5.7  c3.14,0,5.7-2.56,5.7-5.7v-4.78h5.57v4.78C3573.91-134.33,3568.86-129.27,3562.64-129.27z"></path>	<path class="st0" d="M3587.55-150.65c-5.9,0-10.69,4.8-10.69,10.69c0,5.89,4.79,10.69,10.69,10.69c5.89,0,10.69-4.79,10.69-10.69  C3598.25-145.85,3593.45-150.65,3587.55-150.65z M3582.19-139.96c0-2.96,2.41-5.37,5.37-5.37c2.96,0,5.37,2.41,5.37,5.37  c0,0.51-0.07,1.01-0.21,1.48l-3.33-3.33l-3.68,3.68l3.33,3.33c-0.47,0.13-0.96,0.21-1.47,0.21  C3584.59-134.59,3582.19-137,3582.19-139.96z"></path></g>
  <g>	<path class="st0" d="M3551.36-160.05c0-0.1,0.08-0.19,0.19-0.19h2.25c1.22,0,2.09,0.81,2.09,1.86c0,0.77-0.57,1.33-1.05,1.6  c0.53,0.22,1.26,0.71,1.26,1.64c0,1.13-0.93,1.94-2.19,1.94h-2.36c-0.11,0-0.19-0.09-0.19-0.19V-160.05z M3553.91-154.12  c0.61,0,1.09-0.47,1.09-1.1c0-0.61-0.58-1.06-1.24-1.06h-1.38v2.15H3553.91z M3553.75-157.18c0.64,0,1.04-0.47,1.04-1.08  c0-0.61-0.39-1.04-1.04-1.04h-1.36v2.11H3553.75z"></path>	<path class="st0" d="M3557.62-160.05c0-0.1,0.08-0.19,0.19-0.19h2.74c1.21,0,2.19,0.96,2.19,2.15c0,0.93-0.61,1.69-1.49,2.04  l1.38,2.56c0.07,0.13,0,0.29-0.17,0.29h-0.78c-0.08,0-0.14-0.05-0.16-0.09l-1.34-2.67h-1.52v2.57c0,0.1-0.09,0.19-0.19,0.19h-0.65  c-0.11,0-0.19-0.09-0.19-0.19V-160.05z M3560.47-156.82c0.65,0,1.23-0.55,1.23-1.25c0-0.65-0.57-1.2-1.23-1.2h-1.79v2.45H3560.47z"></path>	<path class="st0" d="M3567.41-160.34c2.01,0,3.62,1.62,3.62,3.63c0,2.01-1.61,3.61-3.62,3.61c-2.01,0-3.61-1.6-3.61-3.61  C3563.8-158.72,3565.4-160.34,3567.41-160.34z M3567.41-154.1c1.44,0,2.62-1.17,2.62-2.61c0-1.43-1.18-2.63-2.62-2.63  c-1.43,0-2.61,1.2-2.61,2.63C3564.81-155.27,3565.98-154.1,3567.41-154.1z"></path>	<path class="st0" d="M3572.38-160.05c0-0.1,0.09-0.19,0.19-0.19h0.67c0.11,0,0.19,0.09,0.19,0.19v4.16c0,1.01,0.64,1.79,1.67,1.79  c1.04,0,1.69-0.77,1.69-1.77v-4.18c0-0.1,0.08-0.19,0.19-0.19h0.67c0.1,0,0.19,0.09,0.19,0.19v4.23c0,1.53-1.16,2.73-2.75,2.73  c-1.58,0-2.73-1.2-2.73-2.73V-160.05z"></path>	<path class="st0" d="M3582.83-160.34c0.97,0,1.76,0.35,2.45,0.94c0.08,0.08,0.09,0.2,0.01,0.28c-0.15,0.16-0.3,0.31-0.45,0.47  c-0.08,0.09-0.16,0.08-0.26-0.01c-0.47-0.41-1.1-0.68-1.71-0.68c-1.43,0-2.53,1.21-2.53,2.62c0,1.4,1.1,2.61,2.53,2.61  c0.84,0,1.41-0.3,1.51-0.34v-1.13h-0.99c-0.11,0-0.19-0.08-0.19-0.18v-0.58c0-0.11,0.08-0.19,0.19-0.19h1.83  c0.1,0,0.18,0.09,0.18,0.19c0,0.81,0.01,1.63,0.01,2.44c0,0.05-0.04,0.13-0.08,0.16c0,0-1.04,0.66-2.5,0.66  c-2,0-3.62-1.6-3.62-3.61C3579.2-158.72,3580.82-160.34,3582.83-160.34z"></path>	<path class="st0" d="M3586.98-160.05c0-0.1,0.09-0.19,0.19-0.19h0.66c0.11,0,0.19,0.09,0.19,0.19v2.81h3.68v-2.81  c0-0.1,0.08-0.19,0.19-0.19h0.66c0.1,0,0.19,0.09,0.19,0.19v6.66c0,0.1-0.09,0.19-0.19,0.19h-0.66c-0.11,0-0.19-0.09-0.19-0.19  v-2.91h-3.68v2.91c0,0.1-0.08,0.19-0.19,0.19h-0.66c-0.1,0-0.19-0.09-0.19-0.19V-160.05z"></path>	<path class="st0" d="M3595.68-159.29h-1.64c-0.11,0-0.19-0.09-0.19-0.19v-0.56c0-0.1,0.08-0.19,0.19-0.19h4.33  c0.11,0,0.19,0.09,0.19,0.19v0.56c0,0.1-0.08,0.19-0.19,0.19h-1.64v5.91c0,0.1-0.09,0.19-0.19,0.19h-0.66  c-0.1,0-0.19-0.09-0.19-0.19V-159.29z"></path>	<g>		<path class="st0" d="M3604.35-159.24h-1.64c-0.11,0-0.19-0.09-0.19-0.19V-160c0-0.1,0.08-0.19,0.19-0.19h4.33   c0.11,0,0.19,0.09,0.19,0.19v0.56c0,0.1-0.08,0.19-0.19,0.19h-1.64v5.91c0,0.1-0.09,0.19-0.19,0.19h-0.66   c-0.1,0-0.19-0.09-0.19-0.19V-159.24z"></path>		<path class="st0" d="M3611.31-160.29c2.01,0,3.62,1.62,3.62,3.63c0,2.01-1.61,3.61-3.62,3.61s-3.61-1.6-3.61-3.61   C3607.7-158.67,3609.3-160.29,3611.31-160.29z M3611.31-154.05c1.44,0,2.62-1.17,2.62-2.61c0-1.43-1.18-2.63-2.62-2.63   c-1.43,0-2.61,1.2-2.61,2.63C3608.71-155.22,3609.88-154.05,3611.31-154.05z"></path>		<path class="st0" d="M3619.97-156.54l-2.35-3.36c-0.08-0.13,0-0.29,0.16-0.29h0.74c0.08,0,0.13,0.05,0.16,0.09l1.82,2.57   l1.82-2.57c0.03-0.04,0.09-0.09,0.16-0.09h0.75c0.16,0,0.24,0.16,0.16,0.29l-2.38,3.35v3.21c0,0.1-0.09,0.19-0.19,0.19h-0.66   c-0.11,0-0.19-0.09-0.19-0.19V-156.54z"></path>		<path class="st0" d="M3627.34-160.29c2.01,0,3.62,1.62,3.62,3.63c0,2.01-1.61,3.61-3.62,3.61c-2.01,0-3.61-1.6-3.61-3.61   C3623.73-158.67,3625.33-160.29,3627.34-160.29z M3627.34-154.05c1.44,0,2.62-1.17,2.62-2.61c0-1.43-1.18-2.63-2.62-2.63   c-1.43,0-2.61,1.2-2.61,2.63C3624.74-155.22,3625.91-154.05,3627.34-154.05z"></path>		<path class="st0" d="M3632.31-160c0-0.1,0.09-0.19,0.19-0.19h0.67c0.11,0,0.19,0.09,0.19,0.19v4.16c0,1.01,0.64,1.79,1.67,1.79   c1.04,0,1.69-0.77,1.69-1.77V-160c0-0.1,0.08-0.19,0.19-0.19h0.67c0.1,0,0.19,0.09,0.19,0.19v4.23c0,1.53-1.16,2.73-2.75,2.73   c-1.58,0-2.73-1.2-2.73-2.73V-160z"></path>		<path class="st0" d="M3641.86-160c0-0.1,0.08-0.19,0.19-0.19h2.25c1.22,0,2.09,0.81,2.09,1.86c0,0.77-0.57,1.33-1.05,1.6   c0.53,0.22,1.26,0.71,1.26,1.64c0,1.13-0.93,1.94-2.19,1.94h-2.36c-0.11,0-0.19-0.09-0.19-0.19V-160z M3644.41-154.07   c0.61,0,1.09-0.47,1.09-1.1c0-0.61-0.58-1.06-1.24-1.06h-1.38v2.15H3644.41z M3644.24-157.13c0.64,0,1.04-0.47,1.04-1.08   c0-0.61-0.39-1.04-1.04-1.04h-1.36v2.11H3644.24z"></path>		<path class="st0" d="M3649.47-156.54l-2.35-3.36c-0.08-0.13,0-0.29,0.16-0.29h0.74c0.08,0,0.13,0.05,0.16,0.09l1.82,2.57   l1.82-2.57c0.03-0.04,0.09-0.09,0.16-0.09h0.75c0.16,0,0.24,0.16,0.16,0.29l-2.39,3.35v3.21c0,0.1-0.09,0.19-0.19,0.19h-0.66   c-0.11,0-0.19-0.09-0.19-0.19V-156.54z"></path>	</g></g>
  <g>	<g>		<path class="st0" d="M3603.77-116.35l0.53-0.94c0.09-0.15,0.31-0.13,0.39-0.07c0.05,0.02,0.86,0.63,1.61,0.63   c0.46,0,0.78-0.28,0.78-0.68c0-0.48-0.4-0.84-1.17-1.15c-0.98-0.39-2.21-1.15-2.21-2.51c0-1.13,0.88-2.26,2.63-2.26   c1.18,0,2.09,0.6,2.43,0.85c0.14,0.08,0.11,0.28,0.07,0.36l-0.58,0.88c-0.08,0.12-0.28,0.23-0.39,0.15   c-0.1-0.06-0.93-0.68-1.63-0.68c-0.41,0-0.72,0.27-0.72,0.58c0,0.42,0.34,0.74,1.24,1.1c0.89,0.35,2.3,1.05,2.3,2.59   c0,1.17-1.01,2.35-2.68,2.35c-1.48,0-2.3-0.61-2.56-0.88C3603.71-116.15,3603.68-116.19,3603.77-116.35z"></path>		<path class="st0" d="M3611.48-121.56h-1.63c-0.13,0-0.22-0.1-0.22-0.22v-1.24c0-0.11,0.09-0.22,0.22-0.22h5.05   c0.12,0,0.22,0.1,0.22,0.22v1.24c0,0.11-0.09,0.22-0.22,0.22h-1.63v6.07c0,0.11-0.1,0.22-0.22,0.22h-1.36   c-0.11,0-0.22-0.1-0.22-0.22V-121.56z"></path>		<path class="st0" d="M3616.14-123.02c0-0.11,0.1-0.22,0.22-0.22h1.4c0.12,0,0.22,0.1,0.22,0.22v4.61c0,0.8,0.59,1.43,1.4,1.43   c0.82,0,1.42-0.64,1.42-1.43v-4.61c0-0.11,0.09-0.22,0.22-0.22h1.4c0.11,0,0.22,0.1,0.22,0.22v4.7c0,1.73-1.46,3.16-3.25,3.16   c-1.79,0-3.23-1.43-3.23-3.16V-123.02z"></path>		<path class="st0" d="M3624.45-123.02c0-0.11,0.09-0.22,0.2-0.22h2.78c2.19,0,3.99,1.79,3.99,3.97c0,2.21-1.8,3.99-3.99,3.99h-2.78   c-0.11,0-0.2-0.1-0.2-0.22V-123.02z M3627.32-116.96c1.29,0,2.22-1.01,2.22-2.31c0-1.29-0.93-2.3-2.22-2.3h-1.09v4.61H3627.32z"></path>		<path class="st0" d="M3632.81-123.02c0-0.11,0.09-0.22,0.22-0.22h4.71c0.12,0,0.22,0.1,0.22,0.22v1.24c0,0.11-0.09,0.22-0.22,0.22   h-3.15v1.41h2.59c0.11,0,0.22,0.1,0.22,0.22v1.24c0,0.12-0.1,0.22-0.22,0.22h-2.59v1.54h3.15c0.12,0,0.22,0.1,0.22,0.22v1.24   c0,0.11-0.09,0.22-0.22,0.22h-4.71c-0.13,0-0.22-0.1-0.22-0.22V-123.02z"></path>		<path class="st0" d="M3639.47-123.14c0-0.11,0.1-0.2,0.22-0.2h0.28l4.54,4.37h0.01v-4.04c0-0.11,0.09-0.22,0.22-0.22h1.36   c0.11,0,0.22,0.1,0.22,0.22v7.65c0,0.11-0.1,0.2-0.22,0.2h-0.18c-0.03,0-0.13-0.03-0.15-0.06l-4.49-4.52h-0.01v4.24   c0,0.11-0.09,0.22-0.22,0.22h-1.35c-0.11,0-0.22-0.1-0.22-0.22L3639.47-123.14z"></path>		<path class="st0" d="M3649.29-121.56h-1.63c-0.12,0-0.22-0.1-0.22-0.22v-1.24c0-0.11,0.09-0.22,0.22-0.22h5.05   c0.13,0,0.22,0.1,0.22,0.22v1.24c0,0.11-0.09,0.22-0.22,0.22h-1.63v6.07c0,0.11-0.1,0.22-0.22,0.22h-1.36   c-0.11,0-0.22-0.1-0.22-0.22V-121.56z"></path>	</g>	<g>		<path class="st0" d="M3603.71-112.18c0-0.11,0.1-0.22,0.22-0.22h1.4c0.13,0,0.22,0.1,0.22,0.22v4.61c0,0.8,0.59,1.43,1.4,1.43   c0.82,0,1.42-0.64,1.42-1.43v-4.61c0-0.11,0.09-0.22,0.22-0.22h1.4c0.11,0,0.22,0.1,0.22,0.22v4.7c0,1.73-1.46,3.16-3.25,3.16   c-1.79,0-3.23-1.43-3.23-3.16V-112.18z"></path>		<path class="st0" d="M3612.01-112.3c0-0.11,0.1-0.2,0.22-0.2h0.28l4.54,4.37h0.01v-4.04c0-0.11,0.09-0.22,0.22-0.22h1.36   c0.11,0,0.22,0.1,0.22,0.22v7.65c0,0.11-0.1,0.2-0.22,0.2h-0.18c-0.03,0-0.12-0.03-0.15-0.06l-4.49-4.52h-0.01v4.24   c0,0.11-0.09,0.22-0.22,0.22h-1.35c-0.11,0-0.22-0.1-0.22-0.22L3612.01-112.3z"></path>		<path class="st0" d="M3620.82-112.18c0-0.11,0.1-0.22,0.22-0.22h1.36c0.11,0,0.22,0.1,0.22,0.22v7.53c0,0.11-0.1,0.22-0.22,0.22   h-1.36c-0.11,0-0.22-0.1-0.22-0.22V-112.18z"></path>		<path class="st0" d="M3628.07-112.51c2.27,0,4.09,1.83,4.09,4.11c0,2.27-1.82,4.08-4.09,4.08c-2.27,0-4.08-1.81-4.08-4.08   C3623.99-110.68,3625.8-112.51,3628.07-112.51z M3628.07-106.14c1.25,0,2.27-1.02,2.27-2.26c0-1.25-1.02-2.29-2.27-2.29   c-1.24,0-2.26,1.03-2.26,2.29C3625.81-107.16,3626.83-106.14,3628.07-106.14z"></path>		<path class="st0" d="M3633.53-112.3c0-0.11,0.1-0.2,0.22-0.2h0.28l4.54,4.37h0.01v-4.04c0-0.11,0.09-0.22,0.22-0.22h1.36   c0.11,0,0.22,0.1,0.22,0.22v7.65c0,0.11-0.1,0.2-0.22,0.2h-0.18c-0.03,0-0.12-0.03-0.15-0.06l-4.49-4.52h-0.01v4.24   c0,0.11-0.09,0.22-0.22,0.22h-1.35c-0.11,0-0.22-0.1-0.22-0.22L3633.53-112.3z"></path>	</g>	<g>		<path class="st0" d="M3607.22-134.44l-3.46-5.24c-0.13-0.2,0-0.45,0.25-0.45h2.04c0.13,0,0.2,0.08,0.25,0.14l2.18,3.21l2.18-3.21   c0.05-0.06,0.11-0.14,0.25-0.14h2.04c0.25,0,0.38,0.25,0.25,0.45l-3.51,5.22v5c0,0.16-0.14,0.3-0.3,0.3h-1.87   c-0.17,0-0.3-0.14-0.3-0.3V-134.44z"></path>		<path class="st0" d="M3619.07-140.29c3.14,0,5.64,2.52,5.64,5.66s-2.51,5.63-5.64,5.63c-3.14,0-5.63-2.49-5.63-5.63   S3615.93-140.29,3619.07-140.29z M3619.07-131.51c1.72,0,3.14-1.41,3.14-3.12c0-1.72-1.41-3.15-3.14-3.15   c-1.71,0-3.12,1.43-3.12,3.15C3615.95-132.92,3617.36-131.51,3619.07-131.51z"></path>		<path class="st0" d="M3626.45-139.84c0-0.16,0.14-0.3,0.3-0.3h1.93c0.17,0,0.3,0.14,0.3,0.3v6.35c0,1.1,0.82,1.98,1.93,1.98   c1.13,0,1.96-0.88,1.96-1.98v-6.35c0-0.16,0.13-0.3,0.3-0.3h1.93c0.16,0,0.3,0.14,0.3,0.3v6.47c0,2.38-2.01,4.36-4.48,4.36   c-2.46,0-4.45-1.98-4.45-4.36V-139.84z"></path>		<path class="st0" d="M3637.91-139.84c0-0.16,0.13-0.3,0.3-0.3h4.69c1.88,0,3.42,1.52,3.42,3.39c0,1.44-0.96,2.6-2.32,3.15   l2.15,3.98c0.11,0.2,0,0.45-0.27,0.45h-2.08c-0.13,0-0.22-0.08-0.25-0.14l-2.08-4.15h-1.08v4c0,0.16-0.14,0.3-0.3,0.3h-1.87   c-0.17,0-0.3-0.14-0.3-0.3V-139.84z M3642.69-135.45c0.64,0,1.19-0.6,1.19-1.25s-0.55-1.19-1.19-1.19h-2.32v2.45H3642.69z"></path>		<path class="st0" d="M3645.52-127.57c-0.02-0.01-0.03-0.02-0.05-0.02c-1.02-0.53-2.23-0.47-3.34-0.57   c-7.94-0.75-16.19-0.53-24.12,0.33c-4.23,0.46-8.46,0.92-12.69,1.38c-0.34,0.04-0.79,0-0.87-0.35c-0.08-0.37,0.33-0.62,0.67-0.75   c-0.49,0.18-1.12,0.1-1.41,0.73c-0.25,0.55,0.15,1.11,0.65,1.29c0.4,0.14,0.84,0.1,1.26,0.06c8.04-0.82,16.18-1.08,24.25-1.24   c2.38-0.05,4.76-0.06,7.14-0.04c2.02,0.02,4.04,0.05,6.07,0.06c0.4,0,0.91,0.09,1,0.5c0.09,0.43-0.36,0.78-0.4,1.22   c0.7,0,1.41-0.28,1.94-0.77c0.22-0.21,0.43-0.46,0.5-0.77C3646.23-127,3645.91-127.35,3645.52-127.57z"></path>	</g></g>
  <g>	<g>		<g>			<path class="st0" d="M3391.41,313.3c0,9.65-7.85,17.5-17.5,17.5c-9.65,0-17.5-7.85-17.5-17.5v-9.45h-5.74v9.45    c0,12.81,10.42,23.24,23.24,23.24c12.81,0,23.24-10.43,23.24-23.24v-9.45h-5.74V313.3z"></path>			<path class="st0" d="M3361.95,301.23c-6.22,0-11.27-5.06-11.27-11.28v-4.78h5.57v4.78c0,3.14,2.56,5.7,5.7,5.7    c3.14,0,5.7-2.56,5.7-5.7v-4.78h5.57v4.78C3373.23,296.17,3368.17,301.23,3361.95,301.23z"></path>			<path class="st0" d="M3386.87,279.85c-5.9,0-10.69,4.8-10.69,10.69c0,5.89,4.79,10.69,10.69,10.69c5.89,0,10.69-4.79,10.69-10.69    C3397.56,284.64,3392.76,279.85,3386.87,279.85z M3381.5,290.54c0-2.96,2.41-5.37,5.37-5.37s5.37,2.41,5.37,5.37    c0,0.51-0.08,1.01-0.21,1.48l-3.33-3.33l-3.68,3.68l3.33,3.33c-0.47,0.13-0.96,0.21-1.47,0.21    C3383.91,295.91,3381.5,293.5,3381.5,290.54z"></path>		</g>	</g>	<g>		<path class="st0" d="M3307.83,285.41c0-0.08,0.07-0.16,0.16-0.16h1.84c1,0,1.71,0.66,1.71,1.52c0,0.63-0.47,1.09-0.86,1.31   c0.44,0.18,1.03,0.58,1.03,1.34c0,0.92-0.76,1.59-1.79,1.59h-1.93c-0.09,0-0.16-0.07-0.16-0.16V285.41z M3309.91,290.25   c0.5,0,0.89-0.39,0.89-0.9c0-0.5-0.48-0.86-1.01-0.86h-1.13v1.76H3309.91z M3309.78,287.75c0.53,0,0.85-0.39,0.85-0.88   c0-0.5-0.32-0.85-0.85-0.85h-1.11v1.73H3309.78z"></path>		<path class="st0" d="M3312.95,285.41c0-0.08,0.07-0.16,0.16-0.16h2.24c0.99,0,1.79,0.78,1.79,1.76c0,0.76-0.5,1.38-1.22,1.67   l1.13,2.09c0.06,0.11,0,0.24-0.14,0.24h-0.64c-0.07,0-0.12-0.04-0.13-0.07l-1.09-2.18h-1.24v2.1c0,0.08-0.07,0.16-0.16,0.16h-0.53   c-0.09,0-0.16-0.07-0.16-0.16V285.41z M3315.28,288.05c0.53,0,1-0.45,1-1.02c0-0.54-0.47-0.98-1-0.98h-1.47v2H3315.28z"></path>		<path class="st0" d="M3320.95,285.17c1.65,0,2.96,1.33,2.96,2.97c0,1.65-1.32,2.95-2.96,2.95s-2.96-1.31-2.96-2.95   C3318,286.49,3319.31,285.17,3320.95,285.17z M3320.95,290.27c1.18,0,2.14-0.95,2.14-2.13c0-1.17-0.96-2.15-2.14-2.15   c-1.17,0-2.13,0.98-2.13,2.15C3318.82,289.32,3319.79,290.27,3320.95,290.27z"></path>		<path class="st0" d="M3325.02,285.41c0-0.08,0.07-0.16,0.16-0.16h0.55c0.09,0,0.16,0.07,0.16,0.16v3.4c0,0.82,0.53,1.47,1.37,1.47   c0.85,0,1.38-0.63,1.38-1.45v-3.42c0-0.08,0.07-0.16,0.16-0.16h0.55c0.08,0,0.16,0.07,0.16,0.16v3.46c0,1.25-0.95,2.23-2.25,2.23   c-1.29,0-2.23-0.98-2.23-2.23V285.41z"></path>		<path class="st0" d="M3333.56,285.17c0.79,0,1.44,0.29,2,0.77c0.07,0.07,0.07,0.16,0.01,0.23c-0.12,0.13-0.25,0.26-0.37,0.39   c-0.07,0.07-0.13,0.07-0.21-0.01c-0.39-0.34-0.9-0.56-1.4-0.56c-1.17,0-2.07,0.99-2.07,2.14c0,1.14,0.9,2.13,2.07,2.13   c0.68,0,1.15-0.25,1.23-0.28v-0.92h-0.81c-0.09,0-0.16-0.07-0.16-0.15v-0.48c0-0.09,0.07-0.16,0.16-0.16h1.5   c0.08,0,0.15,0.07,0.15,0.16c0,0.66,0.01,1.33,0.01,1.99c0,0.04-0.03,0.11-0.07,0.13c0,0-0.85,0.54-2.04,0.54   c-1.64,0-2.96-1.31-2.96-2.95C3330.6,286.49,3331.93,285.17,3333.56,285.17z"></path>		<path class="st0" d="M3336.96,285.41c0-0.08,0.07-0.16,0.16-0.16h0.54c0.09,0,0.16,0.07,0.16,0.16v2.3h3.01v-2.3   c0-0.08,0.07-0.16,0.16-0.16h0.54c0.08,0,0.16,0.07,0.16,0.16v5.45c0,0.08-0.07,0.16-0.16,0.16h-0.54c-0.09,0-0.16-0.07-0.16-0.16   v-2.38h-3.01v2.38c0,0.08-0.07,0.16-0.16,0.16h-0.54c-0.08,0-0.16-0.07-0.16-0.16V285.41z"></path>		<path class="st0" d="M3344.07,286.02h-1.34c-0.09,0-0.16-0.07-0.16-0.16v-0.46c0-0.08,0.07-0.16,0.16-0.16h3.54   c0.09,0,0.16,0.07,0.16,0.16v0.46c0,0.08-0.07,0.16-0.16,0.16h-1.34v4.83c0,0.08-0.07,0.16-0.16,0.16h-0.54   c-0.08,0-0.16-0.07-0.16-0.16V286.02z"></path>		<path class="st0" d="M3306.69,293.95h-1.34c-0.09,0-0.16-0.07-0.16-0.16v-0.46c0-0.08,0.07-0.16,0.16-0.16h3.54   c0.09,0,0.16,0.07,0.16,0.16v0.46c0,0.08-0.07,0.16-0.16,0.16h-1.34v4.83c0,0.08-0.07,0.16-0.16,0.16h-0.54   c-0.08,0-0.16-0.07-0.16-0.16V293.95z"></path>		<path class="st0" d="M3312.39,293.09c1.65,0,2.96,1.33,2.96,2.97c0,1.65-1.32,2.96-2.96,2.96s-2.96-1.31-2.96-2.96   C3309.43,294.42,3310.74,293.09,3312.39,293.09z M3312.39,298.19c1.18,0,2.14-0.95,2.14-2.13c0-1.17-0.96-2.15-2.14-2.15   c-1.17,0-2.13,0.98-2.13,2.15C3310.25,297.24,3311.22,298.19,3312.39,298.19z"></path>		<path class="st0" d="M3319.46,296.16l-1.93-2.75c-0.07-0.11,0-0.24,0.13-0.24h0.61c0.07,0,0.11,0.04,0.13,0.07l1.49,2.1l1.49-2.1   c0.02-0.03,0.07-0.07,0.13-0.07h0.62c0.13,0,0.2,0.13,0.13,0.24l-1.95,2.74v2.63c0,0.08-0.07,0.16-0.16,0.16h-0.54   c-0.09,0-0.16-0.07-0.16-0.16V296.16z"></path>		<path class="st0" d="M3325.5,293.09c1.65,0,2.96,1.33,2.96,2.97c0,1.65-1.32,2.96-2.96,2.96s-2.96-1.31-2.96-2.96   C3322.54,294.42,3323.85,293.09,3325.5,293.09z M3325.5,298.19c1.18,0,2.14-0.95,2.14-2.13c0-1.17-0.96-2.15-2.14-2.15   c-1.17,0-2.13,0.98-2.13,2.15C3323.36,297.24,3324.33,298.19,3325.5,298.19z"></path>		<path class="st0" d="M3329.56,293.33c0-0.08,0.07-0.16,0.16-0.16h0.55c0.09,0,0.16,0.07,0.16,0.16v3.4c0,0.82,0.53,1.47,1.37,1.47   c0.85,0,1.38-0.63,1.38-1.45v-3.42c0-0.08,0.07-0.16,0.16-0.16h0.55c0.08,0,0.16,0.07,0.16,0.16v3.46c0,1.25-0.95,2.23-2.25,2.23   c-1.29,0-2.23-0.98-2.23-2.23V293.33z"></path>		<path class="st0" d="M3337.37,293.33c0-0.08,0.07-0.16,0.16-0.16h1.84c1,0,1.71,0.66,1.71,1.52c0,0.63-0.47,1.09-0.86,1.31   c0.44,0.18,1.03,0.58,1.03,1.34c0,0.92-0.76,1.59-1.79,1.59h-1.93c-0.09,0-0.16-0.07-0.16-0.16V293.33z M3339.46,298.18   c0.5,0,0.89-0.39,0.89-0.9c0-0.5-0.48-0.86-1.01-0.86h-1.13v1.76H3339.46z M3339.32,295.68c0.53,0,0.85-0.39,0.85-0.88   c0-0.5-0.32-0.85-0.85-0.85h-1.11v1.73H3339.32z"></path>		<path class="st0" d="M3343.6,296.16l-1.93-2.75c-0.07-0.11,0-0.24,0.13-0.24h0.61c0.07,0,0.11,0.04,0.13,0.07l1.49,2.1l1.49-2.1   c0.02-0.03,0.07-0.07,0.13-0.07h0.62c0.13,0,0.2,0.13,0.13,0.24l-1.95,2.74v2.63c0,0.08-0.07,0.16-0.16,0.16h-0.54   c-0.09,0-0.16-0.07-0.16-0.16V296.16z"></path>	</g>	<path class="st0" d="M3321.57,310.18l-2.2-3.33c-0.08-0.13,0-0.29,0.16-0.29h1.3c0.08,0,0.13,0.05,0.16,0.09l1.39,2.04l1.39-2.04  c0.03-0.04,0.07-0.09,0.16-0.09h1.3c0.16,0,0.24,0.16,0.16,0.29l-2.23,3.32v3.18c0,0.1-0.09,0.19-0.19,0.19h-1.19  c-0.11,0-0.19-0.09-0.19-0.19V310.18z"></path>	<path class="st0" d="M3329.1,306.47c1.99,0,3.59,1.6,3.59,3.6c0,1.99-1.59,3.58-3.59,3.58s-3.58-1.58-3.58-3.58  C3325.53,308.07,3327.11,306.47,3329.1,306.47z M3329.1,312.05c1.1,0,1.99-0.9,1.99-1.98c0-1.1-0.9-2-1.99-2  c-1.09,0-1.98,0.91-1.98,2C3327.12,311.15,3328.02,312.05,3329.1,312.05z"></path>	<path class="st0" d="M3333.8,306.75c0-0.1,0.09-0.19,0.19-0.19h1.23c0.11,0,0.19,0.09,0.19,0.19v4.04c0,0.7,0.52,1.26,1.23,1.26  c0.72,0,1.25-0.56,1.25-1.26v-4.04c0-0.1,0.08-0.19,0.19-0.19h1.23c0.1,0,0.19,0.09,0.19,0.19v4.12c0,1.52-1.28,2.77-2.85,2.77  c-1.56,0-2.83-1.26-2.83-2.77V306.75z"></path>	<path class="st0" d="M3341.09,306.75c0-0.1,0.08-0.19,0.19-0.19h2.98c1.2,0,2.17,0.97,2.17,2.15c0,0.92-0.61,1.65-1.48,2l1.37,2.53  c0.07,0.13,0,0.29-0.17,0.29h-1.33c-0.08,0-0.14-0.05-0.16-0.09l-1.33-2.64h-0.69v2.54c0,0.1-0.09,0.19-0.19,0.19h-1.19  c-0.11,0-0.19-0.09-0.19-0.19V306.75z M3344.13,309.55c0.41,0,0.76-0.38,0.76-0.8c0-0.42-0.35-0.76-0.76-0.76h-1.48v1.55H3344.13z"></path>	<path class="st0" d="M3303.45,323.6l0.47-0.83c0.08-0.13,0.27-0.11,0.34-0.06c0.04,0.02,0.76,0.55,1.42,0.55  c0.4,0,0.69-0.25,0.69-0.6c0-0.42-0.35-0.74-1.03-1.01c-0.86-0.34-1.93-1.01-1.93-2.2c0-0.99,0.77-1.98,2.3-1.98  c1.04,0,1.83,0.53,2.13,0.75c0.12,0.07,0.1,0.25,0.06,0.32l-0.51,0.77c-0.07,0.11-0.25,0.2-0.34,0.13c-0.09-0.05-0.82-0.6-1.43-0.6  c-0.36,0-0.63,0.24-0.63,0.51c0,0.37,0.3,0.65,1.09,0.97c0.78,0.31,2.01,0.92,2.01,2.27c0,1.03-0.89,2.06-2.35,2.06  c-1.3,0-2.01-0.54-2.24-0.77C3303.4,323.78,3303.37,323.74,3303.45,323.6z"></path>	<path class="st0" d="M3310.21,319.04h-1.43c-0.11,0-0.19-0.09-0.19-0.19v-1.09c0-0.1,0.08-0.19,0.19-0.19h4.43  c0.11,0,0.19,0.09,0.19,0.19v1.09c0,0.1-0.08,0.19-0.19,0.19h-1.43v5.32c0,0.1-0.09,0.19-0.19,0.19h-1.2  c-0.1,0-0.19-0.09-0.19-0.19V319.04z"></path>	<path class="st0" d="M3314.29,317.76c0-0.1,0.09-0.19,0.19-0.19h1.23c0.11,0,0.19,0.09,0.19,0.19v4.04c0,0.7,0.52,1.26,1.23,1.26  c0.72,0,1.25-0.56,1.25-1.26v-4.04c0-0.1,0.08-0.19,0.19-0.19h1.23c0.1,0,0.19,0.09,0.19,0.19v4.12c0,1.52-1.28,2.77-2.85,2.77  c-1.57,0-2.83-1.26-2.83-2.77V317.76z"></path>	<path class="st0" d="M3321.58,317.76c0-0.1,0.08-0.19,0.18-0.19h2.43c1.92,0,3.5,1.57,3.5,3.48c0,1.93-1.58,3.5-3.5,3.5h-2.43  c-0.1,0-0.18-0.09-0.18-0.19V317.76z M3324.09,323.07c1.13,0,1.94-0.89,1.94-2.02c0-1.13-0.82-2.01-1.94-2.01h-0.96v4.04H3324.09z"></path>	<path class="st0" d="M3328.9,317.76c0-0.1,0.08-0.19,0.19-0.19h4.13c0.11,0,0.19,0.09,0.19,0.19v1.09c0,0.1-0.08,0.19-0.19,0.19  h-2.76v1.24h2.27c0.1,0,0.19,0.09,0.19,0.19v1.09c0,0.11-0.09,0.19-0.19,0.19h-2.27v1.35h2.76c0.11,0,0.19,0.09,0.19,0.19v1.09  c0,0.1-0.08,0.19-0.19,0.19h-4.13c-0.11,0-0.19-0.09-0.19-0.19V317.76z"></path>	<path class="st0" d="M3334.74,317.65c0-0.1,0.09-0.18,0.19-0.18h0.25l3.98,3.83h0.01v-3.54c0-0.1,0.08-0.19,0.19-0.19h1.2  c0.1,0,0.19,0.09,0.19,0.19v6.71c0,0.1-0.09,0.18-0.19,0.18h-0.16c-0.03,0-0.11-0.03-0.13-0.05l-3.94-3.96h-0.01v3.72  c0,0.1-0.08,0.19-0.19,0.19h-1.19c-0.1,0-0.19-0.09-0.19-0.19L3334.74,317.65z"></path>	<path class="st0" d="M3343.35,319.04h-1.43c-0.11,0-0.19-0.09-0.19-0.19v-1.09c0-0.1,0.08-0.19,0.19-0.19h4.43  c0.11,0,0.19,0.09,0.19,0.19v1.09c0,0.1-0.08,0.19-0.19,0.19h-1.43v5.32c0,0.1-0.09,0.19-0.19,0.19h-1.2  c-0.1,0-0.19-0.09-0.19-0.19V319.04z"></path>	<path class="st0" d="M3314.4,326.86c0-0.1,0.09-0.19,0.19-0.19h1.23c0.11,0,0.19,0.09,0.19,0.19v4.04c0,0.7,0.52,1.26,1.23,1.26  c0.72,0,1.25-0.56,1.25-1.26v-4.04c0-0.1,0.08-0.19,0.19-0.19h1.23c0.1,0,0.19,0.09,0.19,0.19v4.12c0,1.52-1.28,2.77-2.85,2.77  c-1.56,0-2.83-1.26-2.83-2.77V326.86z"></path>	<path class="st0" d="M3321.68,326.75c0-0.1,0.09-0.18,0.19-0.18h0.25l3.98,3.83h0.01v-3.54c0-0.1,0.08-0.19,0.19-0.19h1.2  c0.1,0,0.19,0.09,0.19,0.19v6.71c0,0.1-0.09,0.18-0.19,0.18h-0.16c-0.03,0-0.11-0.03-0.13-0.05l-3.94-3.96h-0.01v3.72  c0,0.1-0.08,0.19-0.19,0.19h-1.19c-0.1,0-0.19-0.09-0.19-0.19L3321.68,326.75z"></path>	<path class="st0" d="M3329.39,326.86c0-0.1,0.09-0.19,0.19-0.19h1.2c0.1,0,0.19,0.09,0.19,0.19v6.6c0,0.1-0.09,0.19-0.19,0.19h-1.2  c-0.1,0-0.19-0.09-0.19-0.19V326.86z"></path>	<path class="st0" d="M3335.75,326.57c1.99,0,3.59,1.6,3.59,3.6c0,1.99-1.6,3.58-3.59,3.58c-1.99,0-3.58-1.58-3.58-3.58  C3332.17,328.17,3333.76,326.57,3335.75,326.57z M3335.75,332.15c1.1,0,1.99-0.9,1.99-1.98c0-1.1-0.9-2-1.99-2  c-1.09,0-1.98,0.91-1.98,2C3333.77,331.25,3334.67,332.15,3335.75,332.15z"></path>	<path class="st0" d="M3340.54,326.75c0-0.1,0.09-0.18,0.19-0.18h0.25l3.98,3.83h0.01v-3.54c0-0.1,0.08-0.19,0.19-0.19h1.2  c0.1,0,0.19,0.09,0.19,0.19v6.71c0,0.1-0.09,0.18-0.19,0.18h-0.16c-0.03,0-0.11-0.03-0.13-0.05l-3.94-3.96h-0.01v3.72  c0,0.1-0.08,0.19-0.19,0.19h-1.19c-0.1,0-0.19-0.09-0.19-0.19L3340.54,326.75z"></path>	<path class="st0" d="M3345.93,314.59c-0.01-0.01-0.02-0.01-0.03-0.01c-0.63-0.33-1.38-0.29-2.07-0.35  c-4.92-0.46-10.03-0.33-14.94,0.21c-2.62,0.28-5.24,0.57-7.86,0.86c-0.21,0.02-0.49,0-0.54-0.22c-0.05-0.23,0.2-0.39,0.41-0.46  c-0.31,0.11-0.69,0.06-0.87,0.45c-0.16,0.34,0.09,0.69,0.4,0.8c0.25,0.09,0.52,0.06,0.78,0.04c4.98-0.5,10.02-0.67,15.02-0.77  c1.47-0.03,2.95-0.04,4.42-0.02c1.25,0.01,2.51,0.03,3.76,0.04c0.25,0,0.56,0.06,0.62,0.31c0.06,0.26-0.22,0.49-0.25,0.76  c0.44,0,0.87-0.17,1.2-0.48c0.14-0.13,0.26-0.29,0.31-0.47C3346.38,314.94,3346.18,314.72,3345.93,314.59z"></path></g>
  <g>	<g>		<path class="st0" d="M3528.75,249.62c0,9.65-7.85,17.5-17.5,17.5c-9.65,0-17.5-7.85-17.5-17.5v-9.45h-5.74v9.45   c0,12.81,10.42,23.24,23.24,23.24c12.81,0,23.24-10.43,23.24-23.24v-9.45h-5.74V249.62z"></path>		<path class="st0" d="M3499.28,237.54c-6.22,0-11.27-5.06-11.27-11.28v-4.78h5.57v4.78c0,3.14,2.56,5.7,5.7,5.7   c3.14,0,5.7-2.56,5.7-5.7v-4.78h5.57v4.78C3510.56,232.49,3505.5,237.54,3499.28,237.54z"></path>		<path class="st0" d="M3524.2,216.16c-5.9,0-10.69,4.8-10.69,10.69c0,5.89,4.79,10.69,10.69,10.69c5.89,0,10.69-4.79,10.69-10.69   C3534.89,220.96,3530.09,216.16,3524.2,216.16z M3518.83,226.85c0-2.96,2.41-5.37,5.37-5.37c2.96,0,5.37,2.41,5.37,5.37   c0,0.51-0.07,1.01-0.21,1.48l-3.33-3.33l-3.68,3.68l3.33,3.33c-0.47,0.13-0.96,0.21-1.47,0.21   C3521.24,232.22,3518.83,229.81,3518.83,226.85z"></path>	</g></g>
  <g>	<path class="st0" d="M3444.16,221.72c0-0.08,0.07-0.16,0.16-0.16h1.84c1,0,1.71,0.66,1.71,1.52c0,0.63-0.47,1.09-0.86,1.31  c0.44,0.18,1.03,0.58,1.03,1.34c0,0.92-0.76,1.59-1.79,1.59h-1.93c-0.09,0-0.16-0.07-0.16-0.16V221.72z M3446.24,226.57  c0.5,0,0.89-0.39,0.89-0.9c0-0.5-0.48-0.86-1.01-0.86h-1.13v1.76H3446.24z M3446.11,224.07c0.53,0,0.85-0.39,0.85-0.88  c0-0.5-0.32-0.85-0.85-0.85H3445v1.73H3446.11z"></path>	<path class="st0" d="M3449.28,221.72c0-0.08,0.07-0.16,0.16-0.16h2.24c0.99,0,1.79,0.78,1.79,1.76c0,0.76-0.5,1.38-1.22,1.67  l1.13,2.09c0.06,0.11,0,0.24-0.14,0.24h-0.64c-0.07,0-0.12-0.04-0.13-0.07l-1.09-2.18h-1.24v2.1c0,0.08-0.07,0.16-0.16,0.16h-0.53  c-0.09,0-0.16-0.07-0.16-0.16V221.72z M3451.61,224.36c0.53,0,1-0.45,1-1.02c0-0.54-0.47-0.98-1-0.98h-1.47v2H3451.61z"></path>	<path class="st0" d="M3457.29,221.48c1.65,0,2.96,1.33,2.96,2.97c0,1.65-1.32,2.96-2.96,2.96c-1.65,0-2.96-1.31-2.96-2.96  C3454.33,222.81,3455.64,221.48,3457.29,221.48z M3457.29,226.59c1.18,0,2.14-0.95,2.14-2.13c0-1.17-0.96-2.15-2.14-2.15  c-1.17,0-2.13,0.98-2.13,2.15C3455.16,225.63,3456.12,226.59,3457.29,226.59z"></path>	<path class="st0" d="M3461.35,221.72c0-0.08,0.07-0.16,0.16-0.16h0.55c0.09,0,0.16,0.07,0.16,0.16v3.4c0,0.82,0.53,1.47,1.37,1.47  c0.85,0,1.38-0.63,1.38-1.45v-3.42c0-0.08,0.07-0.16,0.16-0.16h0.55c0.08,0,0.16,0.07,0.16,0.16v3.46c0,1.25-0.95,2.23-2.25,2.23  c-1.29,0-2.23-0.98-2.23-2.23V221.72z"></path>	<path class="st0" d="M3469.9,221.48c0.79,0,1.44,0.29,2,0.77c0.07,0.07,0.07,0.16,0.01,0.23c-0.12,0.13-0.25,0.26-0.37,0.39  c-0.07,0.07-0.13,0.07-0.21-0.01c-0.39-0.34-0.9-0.56-1.4-0.56c-1.17,0-2.07,0.99-2.07,2.14c0,1.14,0.9,2.13,2.07,2.13  c0.68,0,1.15-0.25,1.23-0.28v-0.92h-0.81c-0.09,0-0.16-0.07-0.16-0.15v-0.48c0-0.09,0.07-0.16,0.16-0.16h1.5  c0.08,0,0.15,0.07,0.15,0.16c0,0.66,0.01,1.33,0.01,1.99c0,0.04-0.03,0.11-0.07,0.13c0,0-0.85,0.54-2.04,0.54  c-1.64,0-2.96-1.31-2.96-2.96C3466.93,222.81,3468.26,221.48,3469.9,221.48z"></path>	<path class="st0" d="M3473.3,221.72c0-0.08,0.07-0.16,0.16-0.16h0.54c0.09,0,0.16,0.07,0.16,0.16v2.3h3.01v-2.3  c0-0.08,0.07-0.16,0.16-0.16h0.54c0.08,0,0.16,0.07,0.16,0.16v5.45c0,0.08-0.07,0.16-0.16,0.16h-0.54c-0.09,0-0.16-0.07-0.16-0.16  v-2.38h-3.01v2.38c0,0.08-0.07,0.16-0.16,0.16h-0.54c-0.08,0-0.16-0.07-0.16-0.16V221.72z"></path>	<path class="st0" d="M3480.41,222.34h-1.34c-0.09,0-0.16-0.07-0.16-0.16v-0.46c0-0.08,0.07-0.16,0.16-0.16h3.54  c0.09,0,0.16,0.07,0.16,0.16v0.46c0,0.08-0.07,0.16-0.16,0.16h-1.34v4.83c0,0.08-0.07,0.16-0.16,0.16h-0.54  c-0.08,0-0.16-0.07-0.16-0.16V222.34z"></path>	<path class="st0" d="M3444.02,230.26h-1.34c-0.09,0-0.16-0.07-0.16-0.16v-0.46c0-0.08,0.07-0.16,0.16-0.16h3.54  c0.09,0,0.16,0.07,0.16,0.16v0.46c0,0.08-0.07,0.16-0.16,0.16h-1.34v4.83c0,0.08-0.07,0.16-0.16,0.16h-0.54  c-0.08,0-0.16-0.07-0.16-0.16V230.26z"></path>	<path class="st0" d="M3449.72,229.41c1.65,0,2.96,1.33,2.96,2.97c0,1.65-1.32,2.96-2.96,2.96s-2.95-1.31-2.95-2.96  C3446.76,230.73,3448.07,229.41,3449.72,229.41z M3449.72,234.51c1.18,0,2.14-0.95,2.14-2.13c0-1.17-0.96-2.15-2.14-2.15  c-1.17,0-2.13,0.98-2.13,2.15C3447.59,233.56,3448.55,234.51,3449.72,234.51z"></path>	<path class="st0" d="M3456.8,232.48l-1.93-2.75c-0.07-0.11,0-0.24,0.13-0.24h0.61c0.07,0,0.11,0.04,0.13,0.07l1.49,2.1l1.49-2.1  c0.02-0.03,0.07-0.07,0.13-0.07h0.62c0.13,0,0.2,0.13,0.13,0.24l-1.95,2.74v2.63c0,0.08-0.07,0.16-0.16,0.16h-0.54  c-0.09,0-0.16-0.07-0.16-0.16V232.48z"></path>	<path class="st0" d="M3462.83,229.41c1.65,0,2.96,1.33,2.96,2.97c0,1.65-1.32,2.96-2.96,2.96c-1.65,0-2.96-1.31-2.96-2.96  C3459.88,230.73,3461.18,229.41,3462.83,229.41z M3462.83,234.51c1.18,0,2.14-0.95,2.14-2.13c0-1.17-0.96-2.15-2.14-2.15  c-1.17,0-2.13,0.98-2.13,2.15C3460.7,233.56,3461.66,234.51,3462.83,234.51z"></path>	<path class="st0" d="M3466.9,229.65c0-0.08,0.07-0.16,0.16-0.16h0.55c0.09,0,0.16,0.07,0.16,0.16v3.4c0,0.82,0.53,1.47,1.37,1.47  c0.85,0,1.38-0.63,1.38-1.45v-3.42c0-0.08,0.07-0.16,0.16-0.16h0.55c0.08,0,0.16,0.07,0.16,0.16v3.46c0,1.25-0.95,2.23-2.25,2.23  c-1.29,0-2.23-0.98-2.23-2.23V229.65z"></path>	<path class="st0" d="M3474.71,229.65c0-0.08,0.07-0.16,0.16-0.16h1.84c1,0,1.71,0.66,1.71,1.52c0,0.63-0.47,1.09-0.86,1.31  c0.44,0.18,1.03,0.58,1.03,1.34c0,0.92-0.76,1.59-1.79,1.59h-1.93c-0.09,0-0.16-0.07-0.16-0.16V229.65z M3476.79,234.49  c0.5,0,0.89-0.39,0.89-0.9c0-0.5-0.48-0.86-1.01-0.86h-1.13v1.76H3476.79z M3476.66,231.99c0.53,0,0.85-0.39,0.85-0.88  c0-0.5-0.32-0.85-0.85-0.85h-1.11v1.73H3476.66z"></path>	<path class="st0" d="M3480.93,232.48l-1.93-2.75c-0.07-0.11,0-0.24,0.13-0.24h0.61c0.07,0,0.11,0.04,0.13,0.07l1.49,2.1l1.49-2.1  c0.02-0.03,0.07-0.07,0.13-0.07h0.62c0.13,0,0.2,0.13,0.13,0.24l-1.95,2.74v2.63c0,0.08-0.07,0.16-0.16,0.16h-0.54  c-0.09,0-0.16-0.07-0.16-0.16V232.48z"></path></g>
  <path class="st0" d="M3440.78,259.92l0.47-0.83c0.08-0.13,0.27-0.11,0.34-0.06c0.04,0.02,0.76,0.55,1.42,0.55 c0.4,0,0.69-0.25,0.69-0.6c0-0.42-0.35-0.74-1.03-1.01c-0.86-0.34-1.93-1.01-1.93-2.2c0-0.99,0.77-1.98,2.3-1.98 c1.04,0,1.83,0.53,2.13,0.75c0.12,0.07,0.1,0.25,0.06,0.32l-0.51,0.77c-0.07,0.11-0.25,0.2-0.34,0.13c-0.09-0.05-0.82-0.6-1.43-0.6 c-0.36,0-0.63,0.24-0.63,0.51c0,0.37,0.3,0.65,1.09,0.97c0.78,0.31,2.01,0.92,2.01,2.27c0,1.03-0.89,2.06-2.35,2.06 c-1.3,0-2.01-0.54-2.24-0.77C3440.73,260.1,3440.7,260.06,3440.78,259.92z"></path>
  <path class="st0" d="M3447.54,255.35h-1.43c-0.11,0-0.19-0.09-0.19-0.19v-1.09c0-0.1,0.08-0.19,0.19-0.19h4.43 c0.11,0,0.19,0.09,0.19,0.19v1.09c0,0.1-0.08,0.19-0.19,0.19h-1.43v5.32c0,0.1-0.09,0.19-0.19,0.19h-1.2c-0.1,0-0.19-0.09-0.19-0.19 V255.35z"></path>
  <path class="st0" d="M3451.63,254.08c0-0.1,0.09-0.19,0.19-0.19h1.23c0.11,0,0.19,0.09,0.19,0.19v4.04c0,0.7,0.52,1.26,1.23,1.26 c0.72,0,1.25-0.56,1.25-1.26v-4.04c0-0.1,0.08-0.19,0.19-0.19h1.23c0.1,0,0.19,0.09,0.19,0.19v4.12c0,1.52-1.28,2.77-2.85,2.77 c-1.57,0-2.83-1.26-2.83-2.77V254.08z"></path>
  <path class="st0" d="M3458.91,254.08c0-0.1,0.08-0.19,0.18-0.19h2.43c1.92,0,3.5,1.57,3.5,3.48c0,1.93-1.58,3.5-3.5,3.5h-2.43 c-0.1,0-0.18-0.09-0.18-0.19V254.08z M3461.42,259.39c1.13,0,1.94-0.89,1.94-2.02c0-1.13-0.82-2.01-1.94-2.01h-0.96v4.04H3461.42z"></path>
  <path class="st0" d="M3466.24,254.08c0-0.1,0.08-0.19,0.19-0.19h4.13c0.11,0,0.19,0.09,0.19,0.19v1.09c0,0.1-0.08,0.19-0.19,0.19 h-2.76v1.24h2.27c0.1,0,0.19,0.09,0.19,0.19v1.09c0,0.11-0.09,0.19-0.19,0.19h-2.27v1.35h2.76c0.11,0,0.19,0.09,0.19,0.19v1.09 c0,0.1-0.08,0.19-0.19,0.19h-4.13c-0.11,0-0.19-0.09-0.19-0.19V254.08z"></path>
  <path class="st0" d="M3472.07,253.97c0-0.1,0.09-0.18,0.19-0.18h0.25l3.98,3.83h0.01v-3.54c0-0.1,0.08-0.19,0.19-0.19h1.2 c0.1,0,0.19,0.09,0.19,0.19v6.71c0,0.1-0.09,0.18-0.19,0.18h-0.16c-0.03,0-0.11-0.03-0.13-0.05l-3.94-3.96h-0.01v3.72 c0,0.1-0.08,0.19-0.19,0.19h-1.19c-0.1,0-0.19-0.09-0.19-0.19L3472.07,253.97z"></path>
  <path class="st0" d="M3480.68,255.35h-1.43c-0.11,0-0.19-0.09-0.19-0.19v-1.09c0-0.1,0.08-0.19,0.19-0.19h4.43 c0.11,0,0.19,0.09,0.19,0.19v1.09c0,0.1-0.08,0.19-0.19,0.19h-1.43v5.32c0,0.1-0.09,0.19-0.19,0.19h-1.2c-0.1,0-0.19-0.09-0.19-0.19 V255.35z"></path>
  <path class="st0" d="M3445.73,263.17c0-0.1,0.09-0.19,0.19-0.19h1.23c0.11,0,0.19,0.09,0.19,0.19v4.04c0,0.7,0.52,1.26,1.23,1.26 c0.72,0,1.25-0.56,1.25-1.26v-4.04c0-0.1,0.08-0.19,0.19-0.19h1.23c0.1,0,0.19,0.09,0.19,0.19v4.12c0,1.52-1.28,2.77-2.85,2.77 c-1.56,0-2.83-1.26-2.83-2.77V263.17z"></path>
  <path class="st0" d="M3453.01,263.06c0-0.1,0.09-0.18,0.19-0.18h0.25l3.98,3.83h0.01v-3.54c0-0.1,0.08-0.19,0.19-0.19h1.2 c0.1,0,0.19,0.09,0.19,0.19v6.71c0,0.1-0.09,0.18-0.19,0.18h-0.16c-0.03,0-0.11-0.03-0.13-0.05l-3.94-3.96h-0.01v3.72 c0,0.1-0.08,0.19-0.19,0.19h-1.19c-0.1,0-0.19-0.09-0.19-0.19L3453.01,263.06z"></path>
  <path class="st0" d="M3460.73,263.17c0-0.1,0.09-0.19,0.19-0.19h1.2c0.1,0,0.19,0.09,0.19,0.19v6.6c0,0.1-0.09,0.19-0.19,0.19h-1.2 c-0.1,0-0.19-0.09-0.19-0.19V263.17z"></path>
  <path class="st0" d="M3467.08,262.88c1.99,0,3.59,1.6,3.59,3.6c0,1.99-1.59,3.58-3.59,3.58c-1.99,0-3.58-1.58-3.58-3.58 C3463.51,264.49,3465.09,262.88,3467.08,262.88z M3467.08,268.46c1.1,0,1.99-0.9,1.99-1.98c0-1.1-0.9-2-1.99-2 c-1.09,0-1.98,0.91-1.98,2C3465.1,267.57,3466,268.46,3467.08,268.46z"></path>
  <path class="st0" d="M3471.87,263.06c0-0.1,0.09-0.18,0.19-0.18h0.25l3.98,3.83h0.01v-3.54c0-0.1,0.08-0.19,0.19-0.19h1.2 c0.1,0,0.19,0.09,0.19,0.19v6.71c0,0.1-0.09,0.18-0.19,0.18h-0.16c-0.03,0-0.11-0.03-0.13-0.05l-3.94-3.96h-0.01v3.72 c0,0.1-0.08,0.19-0.19,0.19h-1.19c-0.1,0-0.19-0.09-0.19-0.19L3471.87,263.06z"></path>
  <g>	<path class="st0" d="M3450.9,246.5l-2.2-3.33c-0.08-0.13,0-0.29,0.16-0.29h1.3c0.08,0,0.13,0.05,0.16,0.09l1.39,2.04l1.39-2.04  c0.03-0.04,0.07-0.09,0.16-0.09h1.3c0.16,0,0.24,0.16,0.16,0.29l-2.23,3.32v3.18c0,0.1-0.09,0.19-0.19,0.19h-1.19  c-0.11,0-0.19-0.09-0.19-0.19V246.5z"></path>	<path class="st0" d="M3458.44,242.78c1.99,0,3.59,1.6,3.59,3.6s-1.59,3.58-3.59,3.58s-3.58-1.58-3.58-3.58  S3456.44,242.78,3458.44,242.78z M3458.44,248.36c1.1,0,1.99-0.9,1.99-1.98c0-1.1-0.9-2-1.99-2c-1.09,0-1.98,0.91-1.98,2  C3456.45,247.47,3457.35,248.36,3458.44,248.36z"></path>	<path class="st0" d="M3463.13,243.07c0-0.1,0.09-0.19,0.19-0.19h1.23c0.11,0,0.19,0.09,0.19,0.19v4.04c0,0.7,0.52,1.26,1.23,1.26  c0.72,0,1.25-0.56,1.25-1.26v-4.04c0-0.1,0.08-0.19,0.19-0.19h1.23c0.1,0,0.19,0.09,0.19,0.19v4.12c0,1.52-1.28,2.77-2.85,2.77  c-1.56,0-2.83-1.26-2.83-2.77V243.07z"></path>	<path class="st0" d="M3470.42,243.07c0-0.1,0.08-0.19,0.19-0.19h2.98c1.2,0,2.17,0.97,2.17,2.15c0,0.92-0.61,1.65-1.48,2l1.37,2.53  c0.07,0.13,0,0.29-0.17,0.29h-1.33c-0.08,0-0.14-0.05-0.16-0.09l-1.33-2.64h-0.69v2.54c0,0.1-0.09,0.19-0.19,0.19h-1.19  c-0.11,0-0.19-0.09-0.19-0.19V243.07z M3473.46,245.86c0.41,0,0.76-0.38,0.76-0.8c0-0.42-0.35-0.76-0.76-0.76h-1.48v1.56H3473.46z"></path>	<path class="st0" d="M3475.27,250.9c-0.01-0.01-0.02-0.01-0.03-0.01c-0.63-0.33-1.38-0.29-2.07-0.35  c-4.92-0.46-10.03-0.33-14.94,0.21c-2.62,0.28-5.24,0.57-7.86,0.86c-0.21,0.02-0.49,0-0.54-0.22c-0.05-0.23,0.2-0.39,0.41-0.46  c-0.31,0.11-0.69,0.06-0.87,0.45c-0.16,0.34,0.09,0.69,0.4,0.8c0.25,0.09,0.52,0.06,0.78,0.04c4.98-0.5,10.02-0.67,15.02-0.77  c1.47-0.03,2.95-0.04,4.42-0.02c1.25,0.01,2.51,0.03,3.76,0.04c0.25,0,0.56,0.06,0.62,0.31c0.06,0.26-0.22,0.49-0.25,0.76  c0.44,0,0.87-0.17,1.2-0.48c0.14-0.13,0.26-0.29,0.31-0.47C3475.71,251.26,3475.51,251.03,3475.27,250.9z"></path></g>
  <g>	<g>		<path class="st0" d="M400.1,328.56c0,94.77-77.09,171.9-171.86,171.9c-94.77,0-171.87-77.12-171.87-171.9v-92.78H0v92.78   c0,125.85,102.39,228.24,228.24,228.24c125.85,0,228.24-102.39,228.24-228.24v-92.78H400.1V328.56z"></path>		<path class="st0" d="M110.74,210.01c-61.06,0-110.73-49.69-110.73-110.77V52.26h54.75v46.97c0,30.86,25.12,55.99,55.98,55.99   c30.88,0,55.99-25.14,55.99-55.99V52.26h54.75v46.97C221.48,160.32,171.81,210.01,110.74,210.01z"></path>		<path class="st0" d="M355.45,0c-57.9,0-104.98,47.11-104.98,105c0,57.89,47.08,104.97,104.98,104.97c57.89,0,105-47.08,105-104.97   C460.45,47.11,413.34,0,355.45,0z M302.73,105c0-29.08,23.64-52.74,52.72-52.74c29.07,0,52.73,23.66,52.73,52.74   c0,5.05-0.74,9.93-2.08,14.56l-32.75-32.75l-36.15,36.16l32.71,32.72c-4.62,1.3-9.46,2.03-14.47,2.03   C326.38,157.72,302.73,134.05,302.73,105z"></path>	</g>	<g>		<g>			<path class="st0" d="M504.88,321.62l5.25-9.27c0.89-1.45,3.02-1.23,3.8-0.67c0.45,0.22,8.49,6.14,15.86,6.14    c4.47,0,7.71-2.79,7.71-6.7c0-4.69-3.91-8.27-11.51-11.28c-9.61-3.8-21.67-11.28-21.67-24.69c0-11.06,8.6-22.23,25.8-22.23    c11.62,0,20.55,5.92,23.9,8.38c1.34,0.78,1.12,2.79,0.67,3.57l-5.7,8.6c-0.78,1.23-2.79,2.23-3.8,1.45    c-1.01-0.56-9.16-6.7-15.97-6.7c-4.02,0-7.04,2.68-7.04,5.7c0,4.13,3.35,7.26,12.18,10.83c8.71,3.46,22.56,10.28,22.56,25.47    c0,11.5-9.94,23.12-26.36,23.12c-14.52,0-22.56-6.03-25.13-8.6C504.32,323.63,503.98,323.19,504.88,321.62z"></path>			<path class="st0" d="M580.6,270.46h-15.97c-1.23,0-2.12-1-2.12-2.12v-12.18c0-1.12,0.89-2.12,2.12-2.12h49.59    c1.23,0,2.12,1.01,2.12,2.12v12.18c0,1.12-0.89,2.12-2.12,2.12h-15.97v59.65c0,1.12-1.01,2.12-2.12,2.12h-13.4    c-1.12,0-2.12-1.01-2.12-2.12V270.46z"></path>			<path class="st0" d="M626.39,256.16c0-1.12,1.01-2.12,2.12-2.12h13.74c1.23,0,2.12,1.01,2.12,2.12v45.24    c0,7.82,5.81,14.07,13.74,14.07c8.04,0,13.96-6.25,13.96-14.07v-45.24c0-1.12,0.89-2.12,2.12-2.12h13.74    c1.12,0,2.12,1.01,2.12,2.12v46.13c0,16.98-14.3,31.05-31.94,31.05c-17.54,0-31.72-14.07-31.72-31.05V256.16z"></path>			<path class="st0" d="M708.04,256.16c0-1.12,0.89-2.12,2.01-2.12h27.25c21.56,0,39.21,17.54,39.21,38.98    c0,21.67-17.65,39.21-39.21,39.21h-27.25c-1.12,0-2.01-1.01-2.01-2.12V256.16z M736.19,315.7c12.62,0,21.78-9.94,21.78-22.67    c0-12.62-9.16-22.56-21.78-22.56h-10.72v45.24H736.19z"></path>			<path class="st0" d="M790.13,256.16c0-1.12,0.89-2.12,2.12-2.12h46.24c1.23,0,2.12,1.01,2.12,2.12v12.18    c0,1.12-0.89,2.12-2.12,2.12h-30.94v13.85h25.47c1.12,0,2.12,1.01,2.12,2.12v12.18c0,1.23-1.01,2.12-2.12,2.12h-25.47v15.08    h30.94c1.23,0,2.12,1.01,2.12,2.12v12.18c0,1.12-0.89,2.12-2.12,2.12h-46.24c-1.23,0-2.12-1.01-2.12-2.12V256.16z"></path>			<path class="st0" d="M855.47,254.94c0-1.12,1-2.01,2.12-2.01h2.79l44.57,42.89h0.11v-39.65c0-1.12,0.89-2.12,2.12-2.12h13.4    c1.12,0,2.12,1.01,2.12,2.12v75.17c0,1.12-1.01,2.01-2.12,2.01h-1.79c-0.33,0-1.23-0.33-1.45-0.56l-44.12-44.35h-0.11v41.67    c0,1.12-0.89,2.12-2.12,2.12H857.7c-1.12,0-2.12-1.01-2.12-2.12L855.47,254.94z"></path>			<path class="st0" d="M951.96,270.46h-15.97c-1.23,0-2.12-1-2.12-2.12v-12.18c0-1.12,0.89-2.12,2.12-2.12h49.59    c1.23,0,2.12,1.01,2.12,2.12v12.18c0,1.12-0.89,2.12-2.12,2.12h-15.97v59.65c0,1.12-1.01,2.12-2.12,2.12h-13.4    c-1.12,0-2.12-1.01-2.12-2.12V270.46z"></path>		</g>		<g>			<path class="st0" d="M504.32,362.64c0-1.12,1.01-2.12,2.12-2.12h13.74c1.23,0,2.12,1.01,2.12,2.12v45.24    c0,7.82,5.81,14.07,13.74,14.07c8.04,0,13.96-6.25,13.96-14.07v-45.24c0-1.12,0.89-2.12,2.12-2.12h13.74    c1.12,0,2.12,1.01,2.12,2.12v46.13c0,16.98-14.3,31.05-31.95,31.05c-17.54,0-31.72-14.07-31.72-31.05V362.64z"></path>			<path class="st0" d="M585.85,361.42c0-1.12,1-2.01,2.12-2.01h2.79l44.57,42.89h0.11v-39.65c0-1.12,0.89-2.12,2.12-2.12h13.4    c1.12,0,2.12,1.01,2.12,2.12v75.17c0,1.12-1.01,2.01-2.12,2.01h-1.79c-0.33,0-1.23-0.33-1.45-0.56l-44.12-44.35h-0.11v41.67    c0,1.12-0.89,2.12-2.12,2.12h-13.29c-1.12,0-2.12-1.01-2.12-2.12L585.85,361.42z"></path>			<path class="st0" d="M672.3,362.64c0-1.12,1-2.12,2.12-2.12h13.4c1.12,0,2.12,1.01,2.12,2.12v73.95c0,1.12-1.01,2.12-2.12,2.12    h-13.4c-1.12,0-2.12-1.01-2.12-2.12V362.64z"></path>			<path class="st0" d="M743.56,359.4c22.34,0,40.21,17.98,40.21,40.32c0,22.34-17.87,40.1-40.21,40.1    c-22.34,0-40.1-17.76-40.1-40.1C703.46,377.39,721.22,359.4,743.56,359.4z M743.56,421.96c12.29,0,22.34-10.05,22.34-22.23    c0-12.29-10.05-22.45-22.34-22.45c-12.18,0-22.23,10.16-22.23,22.45C721.33,411.9,731.38,421.96,743.56,421.96z"></path>			<path class="st0" d="M797.16,361.42c0-1.12,1.01-2.01,2.12-2.01h2.79l44.57,42.89h0.11v-39.65c0-1.12,0.89-2.12,2.12-2.12h13.4    c1.12,0,2.12,1.01,2.12,2.12v75.17c0,1.12-1.01,2.01-2.12,2.01h-1.79c-0.33,0-1.23-0.33-1.45-0.56l-44.12-44.35h-0.11v41.67    c0,1.12-0.89,2.12-2.12,2.12H799.4c-1.12,0-2.12-1.01-2.12-2.12L797.16,361.42z"></path>		</g>		<g>			<path class="st0" d="M529.36,158.64l-24.69-37.31c-0.89-1.45,0-3.24,1.79-3.24h14.52c0.89,0,1.45,0.56,1.79,1.01l15.53,22.9    l15.53-22.9c0.34-0.45,0.78-1.01,1.79-1.01h14.52c1.79,0,2.68,1.79,1.79,3.24l-25.02,37.2v35.63c0,1.12-1.01,2.12-2.12,2.12    h-13.29c-1.23,0-2.12-1.01-2.12-2.12V158.64z"></path>			<path class="st0" d="M613.8,116.98c22.34,0,40.21,17.98,40.21,40.32s-17.87,40.1-40.21,40.1c-22.34,0-40.1-17.76-40.1-40.1    S591.46,116.98,613.8,116.98z M613.8,179.53c12.29,0,22.34-10.05,22.34-22.23c0-12.29-10.05-22.45-22.34-22.45    c-12.18,0-22.23,10.16-22.23,22.45C591.57,169.48,601.62,179.53,613.8,179.53z"></path>			<path class="st0" d="M666.4,120.22c0-1.12,1.01-2.12,2.12-2.12h13.74c1.23,0,2.12,1.01,2.12,2.12v45.24    c0,7.82,5.81,14.07,13.74,14.07c8.04,0,13.96-6.26,13.96-14.07v-45.24c0-1.12,0.89-2.12,2.12-2.12h13.74    c1.12,0,2.12,1.01,2.12,2.12v46.13c0,16.98-14.3,31.05-31.95,31.05c-17.54,0-31.72-14.07-31.72-31.05V120.22z"></path>			<path class="st0" d="M748.04,120.22c0-1.12,0.89-2.12,2.12-2.12h33.4c13.4,0,24.35,10.84,24.35,24.13    c0,10.28-6.81,18.54-16.53,22.45l15.3,28.37c0.78,1.45,0,3.24-1.9,3.24h-14.86c-0.89,0-1.56-0.56-1.79-1.01l-14.86-29.6h-7.71    v28.48c0,1.12-1.01,2.12-2.12,2.12h-13.29c-1.23,0-2.12-1.01-2.12-2.12V120.22z M782.11,151.49c4.58,0,8.49-4.24,8.49-8.94    c0-4.69-3.91-8.49-8.49-8.49h-16.53v17.42H782.11z"></path>			<path class="st0" d="M802.38,207.99c-0.11-0.06-0.21-0.11-0.32-0.17c-7.08-3.66-15.47-3.25-23.17-3.97    c-55.13-5.18-112.36-3.67-167.41,2.31c-29.37,3.19-58.75,6.39-88.12,9.59c-2.36,0.26-5.5-0.02-6.06-2.46    c-0.59-2.54,2.29-4.33,4.64-5.18c-3.44,1.24-7.75,0.71-9.76,5.06c-1.74,3.78,1.03,7.7,4.53,8.96c2.78,1,5.81,0.7,8.74,0.41    c55.81-5.66,112.28-7.51,168.3-8.6c16.53-0.32,33.05-0.43,49.58-0.25c14.03,0.15,28.08,0.33,42.12,0.45    c2.77,0.02,6.29,0.64,6.92,3.49c0.66,2.96-2.52,5.43-2.77,8.47c4.88,0,9.76-1.93,13.46-5.33c1.56-1.43,2.96-3.2,3.45-5.32    C807.33,211.94,805.1,209.45,802.38,207.99z"></path>		</g>	</g></g>
</svg>
